<?xml version="1.0" encoding="UTF-8" standalone="no"?>
<svg
   xmlns:dc="http://purl.org/dc/elements/1.1/"
   xmlns:cc="http://creativecommons.org/ns#"
   xmlns:rdf="http://www.w3.org/1999/02/22-rdf-syntax-ns#"
   xmlns:svg="http://www.w3.org/2000/svg"
   xmlns="http://www.w3.org/2000/svg"
   xmlns:sodipodi="http://sodipodi.sourceforge.net/DTD/sodipodi-0.dtd"
   xmlns:inkscape="http://www.inkscape.org/namespaces/inkscape"
   width="512"
   height="512"
   viewBox="0 0 135.46666 135.46666"
   version="1.1"
   id="svg8"
   inkscape:version="1.0.2 (e86c870879, 2021-01-15)"
   sodipodi:docname="logo.svg"
   inkscape:export-filename="./logo.png"
   inkscape:export-xdpi="96"
   inkscape:export-ydpi="96">
  <defs
     id="defs2">
    <clipPath
       clipPathUnits="userSpaceOnUse"
       id="clipPath981">
      <rect
         style="fill:#e3ca0a;stroke:#ffffff;stroke-width:0.79375;stroke-linecap:round;stroke-linejoin:round"
         id="rect983"
         width="208.7569"
         height="112.04929"
         x="-65.323784"
         y="15.497001" />
    </clipPath>
    <clipPath
       clipPathUnits="userSpaceOnUse"
       id="clipPath1407">
      <g
         id="g1425">
        <path
           d="m 286.22352,251.197 h -10.70424 q 1.57608,-16.4832 1.57608,-30.47095 0,-13.98774 -1.57608,-26.85909 h 10.70424 q -0.78805,17.92795 -0.78805,31.58735 0,13.65939 0.78805,25.74269 z m -5.45062,-78.60717 q 2.82381,0 4.79392,2.10144 2.03577,2.10145 2.03577,5.05661 0,2.88949 -2.03577,5.0566 -1.97011,2.10144 -4.79392,2.10144 -2.82382,0 -4.8596,-2.10144 -1.9701,-2.16711 -1.9701,-5.0566 0,-2.95516 1.9701,-5.05661 2.03578,-2.10144 4.8596,-2.10144 z"
           style="font-style:normal;font-variant:normal;font-weight:normal;font-stretch:normal;font-size:120.077px;line-height:1.25;font-family:Rachana;-inkscape-font-specification:Rachana;letter-spacing:0px;word-spacing:0px;stroke-width:3.36232"
           id="path1409" />
        <path
           d="m -75.053621,246.13481 q 7.978593,0 13.074163,-4.89443 5.095572,-4.89442 5.095572,-12.73892 0,-7.91154 -4.894431,-12.47074 -4.827383,-4.62625 -12.671881,-4.62625 h -13.34235 v 34.73034 z m 17.499264,-55.04557 q 0,-7.64336 -5.028524,-11.86731 -4.961477,-4.22397 -11.867317,-4.22397 h -13.34235 v 31.10981 q 3.955772,0.80455 7.978591,0.80455 4.022819,0 7.844498,-0.93864 3.821678,-1.00572 7.106981,-2.95007 7.308121,-4.35806 7.308121,-11.93437 z m -32.048461,-20.98571 19.37658,-0.46933 q 9.185438,0 16.560607,5.36376 3.553491,2.54778 5.698994,6.63766 2.145503,4.02282 2.145503,9.58772 0,5.56489 -4.089866,10.25818 -4.022819,4.69329 -10.325236,6.90584 7.308122,1.81027 11.532082,7.03994 4.291008,5.16262 4.291008,12.67188 0,10.86161 -7.710404,17.09697 -7.643357,6.23538 -18.572016,6.23538 l -18.639063,-0.33524 q -5.631948,0 -10.124096,0.33524 0.67047,-24.47215 0.67047,-43.5135 0,-19.04134 -0.67047,-38.28383 4.961478,0.46933 9.855907,0.46933 z"
           style="font-style:normal;font-variant:normal;font-weight:normal;font-stretch:normal;font-size:120.077px;line-height:1.25;font-family:Rachana;-inkscape-font-specification:Rachana;letter-spacing:0px;word-spacing:0px;stroke-width:3.43281"
           id="path1411" />
        <path
           d="m -2.6676257,233.78945 q 0,-1.40716 -0.2931567,-8.61881 -2.5797794,0.99673 -7.1530246,1.81757 -4.514614,0.82084 -7.035762,1.70031 -2.521148,0.87947 -4.221457,1.99346 -4.045563,2.69705 -4.045563,7.62208 0,4.8664 2.462516,7.62207 2.521148,2.75568 7.622076,2.75568 5.100927,0 8.8533336,-4.39735 3.8110377,-4.39735 3.8110377,-10.49501 z m 9.9086981,-12.66438 -0.5276822,14.951 q 0,7.50481 1.6416778,17.64803 h -9.2637532 l -0.2345254,-7.8566 q -2.5797794,4.28009 -7.3289187,6.56671 -4.7491397,2.228 -11.0226937,2.228 -6.273554,0 -11.081325,-4.22146 -4.807771,-4.28009 -4.807771,-11.37448 0,-7.8566 5.804504,-11.49175 5.100927,-3.22472 13.01616,-4.39735 9.14649,-1.40715 13.4265785,-2.8143 -0.1172627,-6.50808 -3.4592496,-10.8468 -3.2833556,-4.33872 -8.6188079,-4.33872 -5.335453,0 -9.263754,2.46251 -3.9283,2.40389 -5.863135,6.39082 l -3.341986,-3.51788 q 3.459249,-4.74914 8.736071,-7.32892 5.276821,-2.63841 11.257219,-2.63841 9.1464901,0 15.0096251,5.74587 5.9217663,5.68724 5.9217663,14.83373 z"
           style="font-style:normal;font-variant:normal;font-weight:normal;font-stretch:normal;font-size:120.077px;line-height:1.25;font-family:Rachana;-inkscape-font-specification:Rachana;letter-spacing:0px;word-spacing:0px;stroke-width:3.00193"
           id="path1413" />
        <path
           d="m 61.709593,219.13458 -0.762208,22.51444 q 0,5.45272 0.762208,12.723 h -9.850067 v -30.42967 q 0,-11.31585 -5.335453,-14.95099 -2.16936,-1.46578 -5.276821,-1.46578 -5.62861,0 -9.55691,4.33872 -3.869669,4.33872 -3.869669,10.14322 v 32.3645 h -9.850067 q 0.996733,-13.48521 0.996733,-25.73916 0,-12.25395 -0.996733,-25.73916 h 8.618809 l 1.113995,7.56344 q 2.814305,-4.04556 7.211656,-6.44944 4.397351,-2.46252 9.205122,-2.46252 7.504813,0 12.547109,4.98366 5.042296,4.98367 5.042296,12.60574 z"
           style="font-style:normal;font-variant:normal;font-weight:normal;font-stretch:normal;font-size:120.077px;line-height:1.25;font-family:Rachana;-inkscape-font-specification:Rachana;letter-spacing:0px;word-spacing:0px;stroke-width:3.00193"
           id="path1415" />
        <path
           d="m 105.21406,244.4047 q 1.52442,-2.34526 2.28663,-5.21819 0.7622,-2.93157 0.7622,-6.56672 0,-3.63514 -0.7622,-13.30931 -0.35179,-4.80777 -4.28009,-8.0325 -3.869672,-3.22472 -8.14976,-3.22472 -4.280089,0 -7.035762,1.81757 -2.755674,1.81757 -4.33872,4.80777 -2.990199,5.8045 -2.990199,13.19205 0,7.21166 3.224724,13.95427 1.641678,3.34198 4.455983,5.45271 2.872936,2.11073 6.390817,2.11073 3.576512,0 6.214927,-1.34852 2.69704,-1.34852 4.22145,-3.63514 z m 2.63841,-60.91798 h 9.96733 q -1.23126,22.27992 -1.23126,35.58923 0,13.25069 1.23126,35.17881 h -8.7947 l -0.52768,-6.7426 q -2.93157,3.69377 -7.03576,5.86313 -4.104198,2.16936 -9.029231,2.16936 -4.866402,0 -9.205122,-2.28662 -4.280088,-2.28662 -6.918499,-6.09766 -5.452716,-7.8566 -5.452716,-18.35161 0,-10.43638 5.452716,-18.52751 2.697042,-3.98693 6.97713,-6.33219 4.33872,-2.40388 9.205122,-2.40388 9.26375,0 15.36141,8.14976 z"
           style="font-style:normal;font-variant:normal;font-weight:normal;font-stretch:normal;font-size:120.077px;line-height:1.25;font-family:Rachana;-inkscape-font-specification:Rachana;letter-spacing:0px;word-spacing:0px;stroke-width:3.00193"
           id="path1417" />
        <path
           d="m 161.50016,203.12823 -3.63514,8.6188 q -3.98694,-2.63841 -8.50155,-2.63841 -4.45598,0 -8.20839,4.1042 -3.69377,4.10419 -4.16282,9.32238 -0.23453,2.87294 -0.1759,6.15629 0.11726,3.22473 0.11726,4.22146 l 0.0586,21.45907 h -9.9087 q 0.99673,-13.30931 0.99673,-25.56326 0,-12.31259 -0.99673,-25.91506 h 8.73607 l 1.05536,8.67744 q 2.87294,-4.63188 7.32892,-7.32892 4.51462,-2.69704 9.02923,-2.69704 4.57324,0 8.26702,1.58305 z"
           style="font-style:normal;font-variant:normal;font-weight:normal;font-stretch:normal;font-size:120.077px;line-height:1.25;font-family:Rachana;-inkscape-font-specification:Rachana;letter-spacing:0px;word-spacing:0px;stroke-width:3.00193"
           id="path1419" />
        <path
           d="m 199.61053,234.84779 q 0,-1.40716 -0.29315,-8.61881 -2.57978,0.99673 -7.15303,1.81757 -4.51461,0.82084 -7.03576,1.70031 -2.52115,0.87947 -4.22146,1.99346 -4.04556,2.69705 -4.04556,7.62208 0,4.8664 2.46252,7.62207 2.52115,2.75568 7.62207,2.75568 5.10093,0 8.85334,-4.39735 3.81103,-4.39735 3.81103,-10.49501 z m 9.9087,-12.66438 -0.52768,14.951 q 0,7.50481 1.64168,17.64803 h -9.26376 l -0.23452,-7.8566 q -2.57978,4.28009 -7.32892,6.56671 -4.74914,2.228 -11.02269,2.228 -6.27356,0 -11.08133,-4.22146 -4.80777,-4.28009 -4.80777,-11.37448 0,-7.8566 5.80451,-11.49175 5.10092,-3.22472 13.01615,-4.39735 9.1465,-1.40715 13.42658,-2.8143 -0.11726,-6.50808 -3.45925,-10.8468 -3.28335,-4.33872 -8.6188,-4.33872 -5.33546,0 -9.26376,2.46251 -3.9283,2.40389 -5.86313,6.39082 l -3.34199,-3.51788 q 3.45925,-4.74914 8.73607,-7.32892 5.27682,-2.63841 11.25722,-2.63841 9.14649,0 15.00963,5.74587 5.92176,5.68724 5.92176,14.83373 z"
           style="font-style:normal;font-variant:normal;font-weight:normal;font-stretch:normal;font-size:120.077px;line-height:1.25;font-family:Rachana;-inkscape-font-specification:Rachana;letter-spacing:0px;word-spacing:0px;stroke-width:3.00193"
           id="path1421" />
        <path
           d="m 255.7764,239.18353 q 1.05536,-3.16609 1.40715,-6.15629 0.41042,-3.04883 0.41042,-6.50808 0,-3.45925 -0.70358,-6.97713 -0.70357,-3.57652 -2.28662,-6.9185 -1.52442,-3.34199 -4.45598,-5.33545 -2.93157,-2.0521 -6.56671,-2.0521 -3.57652,0 -6.1563,1.40715 -2.57978,1.34852 -4.16282,3.51788 -1.58305,2.16936 -2.63841,5.15956 -1.75894,5.21819 -1.75894,10.49501 0,5.21819 0.70357,8.91197 0.70358,3.69377 2.22799,7.32892 1.52442,3.57651 4.39736,5.8045 2.93156,2.16936 6.50808,2.16936 3.63514,0 6.21492,-1.46578 2.63841,-1.52442 4.22146,-3.86967 1.58304,-2.40389 2.63841,-5.51135 z m 12.13669,-11.90216 q 0,7.32891 -2.9902,13.54384 -2.9902,6.21492 -8.73607,10.08459 -5.68725,3.81104 -13.01616,3.81104 -7.32892,0 -13.0748,-3.81104 -5.68724,-3.86967 -8.6188,-10.08459 -2.93157,-6.21493 -2.93157,-13.54384 0,-11.19859 6.80124,-18.93793 6.85986,-7.79797 17.82393,-7.79797 10.96406,0 17.82393,7.79797 6.9185,7.73934 6.9185,18.93793 z"
           style="font-style:normal;font-variant:normal;font-weight:normal;font-stretch:normal;font-size:120.077px;line-height:1.25;font-family:Rachana;-inkscape-font-specification:Rachana;letter-spacing:0px;word-spacing:0px;stroke-width:3.00193"
           id="path1423" />
      </g>
    </clipPath>
    <filter
       inkscape:label="underwater"
       inkscape:menu="Distort"
       inkscape:menu-tooltip="Something like a water noise"
       height="1.3"
       y="-0.15000001"
       width="1.3"
       x="-0.15000001"
       style="color-interpolation-filters:sRGB"
       id="filter4172">
      <feTurbulence
         numOctaves="1"
         seed="196"
         type="fractalNoise"
         baseFrequency="0.017000000000000001"
         result="result1"
         id="feTurbulence4174" />
      <feGaussianBlur
         stdDeviation="2"
         result="result2"
         id="feGaussianBlur4176" />
      <feDisplacementMap
         scale="50"
         yChannelSelector="B"
         xChannelSelector="R"
         in="SourceGraphic"
         in2="result2"
         id="feDisplacementMap4178" />
    </filter>
    <filter
       inkscape:label="txt-underwater"
       inkscape:menu="Distort"
       inkscape:menu-tooltip="Something like a water noise"
       height="1.3"
       y="-0.15000001"
       width="1.3"
       x="-0.15000001"
       style="color-interpolation-filters:sRGB"
       id="filter4186">
      <feTurbulence
         numOctaves="5"
         seed="95"
         type="fractalNoise"
         baseFrequency="0.0080000000000000002"
         result="result1"
         id="feTurbulence4188" />
      <feGaussianBlur
         stdDeviation="2"
         result="result2"
         id="feGaussianBlur4190" />
      <feDisplacementMap
         scale="50"
         yChannelSelector="B"
         xChannelSelector="R"
         in="SourceGraphic"
         in2="result2"
         id="feDisplacementMap4192" />
    </filter>
  </defs>
  <sodipodi:namedview
     id="base"
     pagecolor="#000000"
     bordercolor="#666666"
     borderopacity="1.0"
     inkscape:pageopacity="0"
     inkscape:pageshadow="2"
     inkscape:zoom="0.32814666"
     inkscape:cx="479.15475"
     inkscape:cy="159.97592"
     inkscape:document-units="mm"
     inkscape:current-layer="layer1"
     inkscape:document-rotation="0"
     showgrid="false"
     inkscape:window-width="1920"
     inkscape:window-height="1016"
     inkscape:window-x="0"
     inkscape:window-y="0"
     inkscape:window-maximized="1"
     fit-margin-top="0"
     fit-margin-left="0"
     fit-margin-right="0"
     fit-margin-bottom="0"
     units="px" />
  <metadata
     id="metadata5">
    <rdf:RDF>
      <cc:Work
         rdf:about="">
        <dc:format>image/svg+xml</dc:format>
        <dc:type
           rdf:resource="http://purl.org/dc/dcmitype/StillImage" />
        <dc:title></dc:title>
      </cc:Work>
    </rdf:RDF>
  </metadata>
  <g
     inkscape:label="Layer 1"
     inkscape:groupmode="layer"
     id="layer1"
     transform="translate(99.458725,37.847698)">
    <path
       style="fill:#1a1a1a;stroke:none;stroke-width:0.130281px;stroke-linecap:butt;stroke-linejoin:miter;stroke-opacity:1"
       d="m -98.401856,-19.850951 61.505961,106.531453 12.212663,0.235413 -28.87266,-47.112793 h 31.194397 l 6.164335,-10.676939 h -44.206163 l -20.94277,-36.2739408 h 30.564379 l 7.536122,-13.0529452 z"
       id="path1053"
       sodipodi:nodetypes="ccccccccccc" />
    <path
       style="fill:#cccccc;stroke:none;stroke-width:0.130281px;stroke-linecap:butt;stroke-linejoin:miter;stroke-opacity:1"
       d="m -53.555892,39.803122 h 13.186766 L -26.006871,64.67928 -4.8891398,28.102297 -24.373324,-8.7944508 h 13.216001 L 2.8190359,18.562458 29.786969,-28.147368 35.767776,-17.788303 -24.683232,86.915915 Z"
       id="path1055"
       sodipodi:nodetypes="ccccccccccc" />
    <path
       style="fill:#93b286;fill-opacity:1;stroke:none;stroke-width:0.130281px;stroke-linecap:butt;stroke-linejoin:miter;stroke-opacity:1"
       d="M -26.006871,64.67928 -4.8891398,28.102297 -24.190855,-8.8257518 l -5.580323,9.945219 14.818385,28.1896488 -15.658792,27.121823 z"
       id="path1057"
       sodipodi:nodetypes="ccccccc" />
    <path
       style="fill:#418584;fill-opacity:1;stroke:none;stroke-width:0.130281px;stroke-linecap:butt;stroke-linejoin:miter;stroke-opacity:1"
       d="M -16.19716,29.126182 H -60.403323 L -82.381729,-8.9415308 h 14.368624 l 15.829831,27.4180698 30.708516,-0.04499 z"
       id="path1059"
       sodipodi:nodetypes="ccccccc" />
    <path
       style="fill:#000000;stroke:none;stroke-width:0.130281px;stroke-linecap:butt;stroke-linejoin:miter;stroke-opacity:1"
       d="m -52.183274,18.476539 22.16782,-38.505191 H 13.335693 L 6.930859,-8.8257518 H -24.190855 L -39.968644,18.502179 Z"
       id="path1061"
       sodipodi:nodetypes="ccccccc" />
    <path
       style="fill:#e6e6e6;stroke:none;stroke-width:0.130281px;stroke-linecap:butt;stroke-linejoin:miter;stroke-opacity:1"
       d="m 2.8190359,18.562458 27.2800471,-47.250425 -123.084816,-0.543983 -5.416123,9.380999 55.156264,-0.349752 -15.954647,26.3844024 6.974201,12.0796706 22.210584,-38.292022 H 14.039398 L -2.2540139,8.0145323 Z"
       id="path1063"
       sodipodi:nodetypes="ccccccccccc" />
    <path
       style="opacity:0.372371;fill:#999999;stroke:none;stroke-width:0.0647739;stroke-linecap:round;stroke-linejoin:round"
       d="m -62.040343,-11.834376 c -1.010068,-0.582346 -1.883636,-1.063376 -1.931133,-1.063376 -0.03108,0 -0.06693,0.02783 -0.186243,0.144585 -0.06067,0.05937 -0.524744,0.373609 -0.551749,0.373609 -0.0093,0 -0.03915,0.01407 -0.06634,0.03127 -0.150209,0.095 -0.537657,0.216613 -0.803277,0.252131 -0.18496,0.02473 -0.609745,0.01173 -0.791717,-0.02425 -0.360319,-0.07123 -0.660035,-0.150384 -0.902701,-0.238404 -0.06419,-0.02328 -0.121849,-0.04234 -0.128122,-0.04234 -0.02247,0 -0.546567,-0.225156 -0.724965,-0.311445 -0.401514,-0.194208 -0.704476,-0.363413 -1.12057,-0.625843 -0.26623,-0.16791 -0.336476,-0.241658 -0.206796,-0.217107 0.0435,0.0082 0.121554,0.0292 0.173467,0.0466 0.193098,0.0647 0.875093,0.245056 1.076154,0.284585 0.06052,0.01189 0.156591,0.03183 0.213497,0.04429 0.113424,0.02483 0.475575,0.07923 0.731041,0.109812 0.199722,0.02391 0.920632,0.02414 1.069005,3.9e-4 0.378743,-0.06075 0.56099,-0.116024 0.832251,-0.252383 0.192185,-0.09661 0.286714,-0.163597 0.269239,-0.190797 -0.01771,-0.02752 -0.765926,-0.409043 -1.076328,-0.548809 -0.282111,-0.127029 -0.862209,-0.357479 -1.145096,-0.454901 -0.112018,-0.03858 -0.252806,-0.08741 -0.312867,-0.108524 -0.277285,-0.09746 -1.062395,-0.299811 -1.338847,-0.345065 -0.08552,-0.014 -0.184908,-0.03408 -0.220867,-0.04461 -0.03595,-0.01057 -0.280002,-0.04511 -0.542317,-0.07683 -0.416364,-0.05035 -0.55377,-0.05776 -1.081897,-0.05835 -0.602484,-6.49e-4 -0.753011,0.01092 -1.362418,0.105237 -0.229301,0.03547 -0.596771,0.108802 -0.650384,0.129782 -0.0203,0.0079 -0.105307,0.03169 -0.18892,0.05276 -0.08362,0.02109 -0.229186,0.06379 -0.323486,0.09492 -0.0943,0.03112 -0.223296,0.07189 -0.28666,0.09059 -0.101335,0.02991 -0.113702,0.0425 -0.102717,0.104506 0.0069,0.03877 0.03115,0.113226 0.05397,0.165457 0.02282,0.05223 0.07099,0.17755 0.10706,0.278489 0.129548,0.362591 0.388585,0.663721 0.781301,0.908256 0.271384,0.168985 0.392029,0.206316 0.600238,0.185729 0.139075,-0.01375 0.250911,-0.08438 0.276862,-0.174846 0.04688,-0.163415 -0.08256,-0.465265 -0.25489,-0.594424 -0.215047,-0.161169 -0.434663,-0.198879 -0.573148,-0.09842 -0.04061,0.02946 -0.07407,0.06347 -0.07435,0.07557 -2.79e-4,0.0121 -0.02061,0.022 -0.04517,0.022 -0.09344,0 -0.150606,-0.246857 -0.09079,-0.39202 0.04491,-0.108988 0.11687,-0.13697 0.352271,-0.13697 0.184394,0 0.234493,0.0074 0.343168,0.05058 0.328935,0.130743 0.533428,0.315931 0.749038,0.678328 0.121718,0.204583 0.205662,0.396504 0.212156,0.48505 0.0024,0.03297 0.01045,0.07015 0.01777,0.08263 0.0073,0.01248 0.0101,0.08201 0.0062,0.154502 -0.019,0.346513 -0.28887,0.479109 -0.854959,0.42007 -0.490768,-0.05118 -0.936507,-0.213662 -1.431214,-0.521698 -0.466834,-0.290679 -0.697142,-0.507376 -1.006694,-0.9472 -0.111739,-0.158766 -0.213093,-0.296851 -0.225226,-0.306853 -0.01214,-0.01 -0.04228,-0.0078 -0.06699,0.0049 -0.02471,0.01264 -0.102427,0.04068 -0.172711,0.06226 -0.07029,0.02159 -0.204799,0.06494 -0.298923,0.09637 -0.400384,0.133639 -1.033652,0.331744 -1.283336,0.401468 -0.08147,0.02275 -0.235378,0.06618 -0.342024,0.09651 -0.106642,0.03033 -0.265681,0.07331 -0.353414,0.09551 -0.08774,0.0222 -0.260829,0.06604 -0.384658,0.09742 -0.12383,0.03139 -0.307074,0.0745 -0.407208,0.09582 -0.100128,0.02132 -0.250763,0.05392 -0.334729,0.07248 -0.395424,0.08734 -0.836211,0.160844 -1.276777,0.212895 -0.237166,0.02802 -1.009715,0.02794 -1.273969,-1.3e-4 -0.260803,-0.02771 -0.830488,-0.107327 -0.883107,-0.123421 -0.02177,-0.0066 -0.132823,-0.03 -0.246772,-0.05187 -0.512126,-0.09827 -1.00363,-0.243689 -1.454317,-0.430274 -0.496417,-0.205518 -0.833167,-0.41337 -1.174981,-0.725239 -0.109139,-0.09957 -0.132334,-0.131426 -0.298784,-0.410237 l -0.180433,-0.30228 -0.01825,-0.172492 c -0.02963,-0.280022 0.08674,-0.482192 0.360212,-0.625774 0.156955,-0.08241 0.299079,-0.103983 0.607207,-0.0922 0.232846,0.0089 0.311664,0.02082 0.502314,0.07589 0.337914,0.09761 0.613246,0.242625 0.814121,0.428784 0.08857,0.0821 0.119384,0.123963 0.195582,0.265841 0.07413,0.138029 0.08978,0.186043 0.08675,0.266202 -0.007,0.184894 -0.15336,0.260702 -0.480361,0.248749 -0.171341,-0.0063 -0.174485,-0.0072 -0.215941,-0.0656 -0.03221,-0.04537 -0.03272,-0.05633 -0.0022,-0.04679 0.07105,0.02219 0.323528,-0.05764 0.356156,-0.11261 0.03107,-0.05236 0.0048,-0.210902 -0.05042,-0.303619 -0.04939,-0.08301 -0.217514,-0.229363 -0.338809,-0.294928 -0.06258,-0.03383 -0.189111,-0.08719 -0.281178,-0.118588 -0.155083,-0.05288 -0.189587,-0.057 -0.469051,-0.05604 -0.28416,10e-4 -0.308785,0.0049 -0.424847,0.06618 -0.311857,0.164845 -0.345191,0.372076 -0.113203,0.703738 0.287874,0.411553 0.795485,0.697145 1.548919,0.871451 0.217611,0.05035 0.400817,0.07975 0.893018,0.143351 0.258756,0.03343 1.789612,0.03374 1.954254,3.91e-4 0.06889,-0.01395 0.235364,-0.04443 0.369947,-0.06772 0.351301,-0.0608 0.543258,-0.10634 0.964948,-0.228945 0.0658,-0.01914 0.181816,-0.05278 0.257799,-0.07477 0.200493,-0.05801 0.611625,-0.192598 0.894551,-0.292833 0.08827,-0.03127 0.212873,-0.07496 0.276893,-0.09711 0.06402,-0.02213 0.18384,-0.0657 0.266268,-0.09682 0.08243,-0.03112 0.199084,-0.07184 0.259236,-0.09049 0.168038,-0.05211 0.16538,-0.07902 -0.0132,-0.133665 -0.08183,-0.02503 -0.184817,-0.06173 -0.228874,-0.08153 -0.637026,-0.286306 -1.035245,-0.54246 -1.387878,-0.892751 -0.233535,-0.231983 -0.517821,-0.599917 -0.704664,-0.912001 -0.101649,-0.169768 -0.109058,-0.188922 -0.07311,-0.188922 0.02346,0 0.116726,0.05583 0.225464,0.134945 0.517802,0.376756 1.13095,0.773466 1.455481,0.941701 0.232745,0.120654 0.730518,0.312139 1.174932,0.451978 0.38595,0.121444 0.491338,0.152451 0.635834,0.187073 0.159217,0.03815 0.133474,0.04317 0.623024,-0.121612 1.091221,-0.367313 1.89191,-0.577264 2.614863,-0.685649 0.152639,-0.02289 0.345418,-0.05241 0.428399,-0.06563 0.228509,-0.03639 0.906625,-0.05652 1.348013,-0.04 0.559823,0.02095 0.989761,0.106793 1.778063,0.355064 0.393276,0.123856 1.073394,0.389149 1.483103,0.578513 0.636478,0.294174 1.21997,0.590604 1.825726,0.927521 0.278642,0.154978 0.364769,0.204757 0.764255,0.441713 0.12341,0.0732 0.229678,0.133093 0.236151,0.133093 0.0353,0 0.122484,-0.123609 0.199165,-0.282381 0.114898,-0.237898 0.126591,-0.303807 0.05783,-0.325777 -0.01239,-0.0039 -0.08682,-0.04331 -0.165394,-0.08747 -0.222944,-0.125262 -0.503285,-0.273283 -0.829395,-0.437922 -0.561969,-0.283716 -0.742796,-0.375387 -0.774846,-0.392813 -0.01763,-0.0096 -0.113469,-0.06008 -0.212996,-0.112193 -0.316283,-0.165656 -0.709391,-0.432585 -0.85034,-0.577402 -0.183381,-0.188413 -0.245975,-0.30546 -0.268611,-0.502289 -0.0247,-0.214799 0.06505,-0.453025 0.190694,-0.506118 0.158911,-0.06715 0.375829,-0.03516 0.643606,0.09492 0.157754,0.07662 0.511025,0.294149 0.643268,0.396077 0.04386,0.03381 0.115211,0.08697 0.158553,0.118136 0.202964,0.145949 0.736956,0.611432 1.07553,0.937543 0.101126,0.0974 0.225816,0.2166 0.277089,0.264882 0.05128,0.04828 0.0975,0.09496 0.102717,0.103739 0.01542,0.02591 0.215262,0.212804 0.218797,0.204616 0.0017,-0.0042 0.06334,-0.148554 0.136817,-0.320955 0.07347,-0.172399 0.161617,-0.361863 0.195883,-0.421031 0.03427,-0.05917 0.06762,-0.117433 0.07411,-0.129477 0.02996,-0.05556 0.19206,-0.251849 0.278396,-0.337085 0.129385,-0.12774 0.207724,-0.181261 0.359122,-0.245343 0.181702,-0.07692 0.557496,-0.07703 0.953606,-2.62e-4 0.153032,0.02964 0.30287,0.06263 0.332971,0.07331 0.451667,0.160186 0.646774,0.251134 0.902933,0.4209 0.458554,0.303898 0.743807,0.63652 1.076094,1.254777 0.474476,0.882822 0.410457,1.279846 -0.230126,1.427174 -0.246086,0.0566 -0.359772,0.0604 -0.546326,0.01827 -0.440904,-0.09957 -0.880727,-0.383838 -1.117386,-0.722177 -0.08358,-0.119479 -0.08725,-0.129499 -0.04755,-0.129499 0.02367,0 0.08266,0.02912 0.131112,0.0647 0.04844,0.03559 0.148541,0.09115 0.222437,0.123485 0.12221,0.05347 0.153872,0.05877 0.350204,0.05866 0.19798,-1.08e-4 0.224679,-0.0059 0.322622,-0.06969 0.219602,-0.143105 0.245432,-0.446142 0.0639,-0.749792 -0.09923,-0.165873 -0.304893,-0.406303 -0.460158,-0.537772 -0.264554,-0.22401 -0.60728,-0.338572 -1.023158,-0.342009 l -0.245242,-0.0021 -0.128372,0.09137 c -0.220146,0.156681 -0.407492,0.510072 -0.56273,1.061482 -0.110323,0.39185 -0.118049,0.446037 -0.07152,0.501225 0.02256,0.02677 0.09109,0.109394 0.152281,0.183609 l 0.111241,0.134947 h -0.05102 c -0.03558,0 -0.08381,-0.02611 -0.159534,-0.08637 -0.120992,-0.09627 -0.156597,-0.10627 -0.158423,-0.04446 -0.0013,0.04164 -0.223526,0.412093 -0.271363,0.452227 -0.03035,0.02546 -0.02654,0.02838 0.446325,0.341533 0.480177,0.317986 0.627556,0.41894 1.123607,0.769664 0.535798,0.378827 0.53863,0.381075 0.47989,0.381075 -0.02426,0 -0.174711,-0.0753 -0.334341,-0.167333 z"
       id="path1131" />
    <path
       style="opacity:0.372371;fill:#999999;stroke:none;stroke-width:0.0647739;stroke-linecap:round;stroke-linejoin:round"
       d="m -16.903328,-12.139218 c 1.010068,-0.582347 1.883638,-1.063377 1.93113,-1.063377 0.03107,0 0.06694,0.02783 0.186246,0.144585 0.06067,0.05937 0.524742,0.373608 0.551745,0.373608 0.0093,0 0.03914,0.01407 0.06635,0.03127 0.150213,0.09499 0.537659,0.216613 0.803279,0.252131 0.184956,0.02473 0.609741,0.01173 0.791713,-0.02425 0.360319,-0.07123 0.66004,-0.150384 0.902705,-0.238405 0.06419,-0.02328 0.121849,-0.04234 0.128118,-0.04234 0.02246,0 0.54657,-0.225156 0.724967,-0.311445 0.401515,-0.194208 0.704474,-0.363413 1.1205687,-0.625843 0.2662314,-0.16791 0.3364777,-0.241658 0.2067979,-0.217107 -0.043474,0.0082 -0.1215539,0.0292 -0.1734676,0.0466 -0.1931007,0.06471 -0.875091,0.245056 -1.076153,0.284585 -0.06052,0.01189 -0.156589,0.03183 -0.213501,0.04429 -0.113423,0.02483 -0.475571,0.07923 -0.731038,0.109812 -0.199723,0.02391 -0.920634,0.02414 -1.069004,3.92e-4 -0.378745,-0.06075 -0.560994,-0.116025 -0.832252,-0.252384 -0.192184,-0.09661 -0.286716,-0.163598 -0.269241,-0.190797 0.01773,-0.02752 0.76593,-0.409042 1.07633,-0.548809 0.282113,-0.12703 0.862211,-0.357479 1.145096,-0.454902 0.112018,-0.03857 0.252808,-0.08741 0.312866,-0.108524 0.277287,-0.09747 1.062396,-0.299811 1.3388495,-0.345065 0.08552,-0.014 0.1849074,-0.03408 0.2208666,-0.04461 0.03595,-0.01057 0.2799994,-0.04512 0.5423165,-0.07683 0.4163652,-0.05035 0.5537702,-0.05776 1.0818948,-0.05835 0.6024884,-6.49e-4 0.75301,0.01092 1.3624213,0.105237 0.2293015,0.03547 0.5967708,0.108802 0.6503833,0.129782 0.020286,0.0079 0.1053068,0.03169 0.1889193,0.05276 0.083616,0.02109 0.229183,0.0638 0.323483,0.09492 0.094299,0.03112 0.2232993,0.07189 0.2866622,0.09059 0.1013355,0.02991 0.113702,0.0425 0.1027173,0.104506 -0.00685,0.03877 -0.031166,0.113226 -0.053971,0.165457 -0.022794,0.05223 -0.070994,0.17755 -0.1070601,0.278489 -0.1295462,0.362591 -0.3885841,0.66372 -0.7812985,0.908256 -0.2713823,0.168984 -0.3920305,0.206316 -0.6002381,0.185729 -0.1390736,-0.01375 -0.250912,-0.08438 -0.2768619,-0.174846 -0.046876,-0.163416 0.082559,-0.465265 0.2548914,-0.594424 0.2150468,-0.161169 0.4346629,-0.198879 0.5731455,-0.09842 0.040618,0.02946 0.074071,0.06347 0.07435,0.07557 2.81e-4,0.0121 0.020634,0.022 0.045204,0.022 0.093439,0 0.1506064,-0.246857 0.090792,-0.39202 -0.044903,-0.108988 -0.1168674,-0.136971 -0.3522696,-0.136971 -0.1843943,0 -0.2344907,0.0074 -0.3431695,0.05058 -0.3289336,0.130742 -0.5334277,0.31593 -0.7490354,0.678328 -0.1217176,0.204582 -0.2056623,0.396504 -0.2121567,0.485049 -0.00244,0.03297 -0.010334,0.07015 -0.017778,0.08263 -0.00732,0.01248 -0.010102,0.08201 -0.00615,0.154504 0.019008,0.346512 0.2888673,0.479109 0.8549564,0.420069 0.4907673,-0.05118 0.936509,-0.213661 1.431215,-0.521697 0.4668356,-0.29068 0.6971414,-0.507376 1.006695,-0.9472 0.1117396,-0.158766 0.2130914,-0.296851 0.2252245,-0.306853 0.012111,-0.01 0.042301,-0.0078 0.066988,0.0049 0.024721,0.01266 0.102427,0.04068 0.1727105,0.06226 0.070286,0.02159 0.2047995,0.06496 0.2989218,0.09637 0.4003863,0.133638 1.0336493,0.331744 1.2833362,0.401468 0.081468,0.02275 0.2353779,0.06618 0.3420223,0.09651 0.1066421,0.03033 0.2656845,0.07331 0.3534157,0.09551 0.087727,0.0222 0.2608307,0.06604 0.3846594,0.09742 0.1238286,0.03139 0.30707092,0.0745 0.40720581,0.09582 0.10013953,0.02132 0.2507657,0.05392 0.3347301,0.07248 0.39542227,0.08734 0.8362104,0.160844 1.27677674,0.212895 0.23716604,0.02802 1.00971395,0.02794 1.27397135,-1.3e-4 0.2608006,-0.02771 0.8304847,-0.107327 0.8831067,-0.123422 0.02176,-0.0066 0.1328207,-0.03001 0.2467724,-0.05187 0.5121225,-0.09827 1.0036271,-0.24369 1.4543133,-0.430275 0.4964188,-0.205517 0.833167,-0.41337 1.1749826,-0.725238 0.1091386,-0.09957 0.132333,-0.131426 0.2987848,-0.410237 l 0.1804358,-0.30228 0.018265,-0.172492 c 0.029645,-0.280023 -0.08674,-0.482192 -0.3602166,-0.625774 -0.1569523,-0.08241 -0.299074,-0.103983 -0.6072051,-0.0922 -0.2328465,0.0089 -0.3116646,0.02082 -0.5023129,0.07589 -0.3379152,0.09761 -0.6132469,0.242623 -0.8141216,0.428782 -0.088574,0.0821 -0.1193837,0.123965 -0.1955822,0.265843 -0.074129,0.138028 -0.089782,0.186042 -0.086763,0.266202 0.00697,0.184894 0.1533584,0.260702 0.4803632,0.248748 0.1713406,-0.0063 0.1744827,-0.0072 0.2159378,-0.06559 0.032199,-0.04537 0.032745,-0.05633 0.00197,-0.04679 -0.071052,0.0222 -0.3235273,-0.05763 -0.3561539,-0.112611 -0.031073,-0.05236 -0.00488,-0.210901 0.050407,-0.303619 0.049385,-0.08301 0.2175134,-0.229362 0.338806,-0.294927 0.062587,-0.03383 0.1891121,-0.08719 0.2811815,-0.118588 0.1550816,-0.05288 0.1895847,-0.057 0.4690522,-0.05603 0.2841599,10e-4 0.3087849,0.0049 0.4248441,0.06616 0.3118573,0.164845 0.3451923,0.372076 0.1132027,0.703738 -0.2878733,0.411553 -0.7954846,0.697145 -1.5489187,0.871451 -0.2176119,0.05035 -0.4008194,0.07975 -0.8930184,0.143351 -0.2587569,0.03343 -1.7896145,0.03374 -1.9542537,3.9e-4 -0.068892,-0.01396 -0.2353674,-0.04443 -0.3699508,-0.06772 -0.35129887,-0.0608 -0.54325698,-0.106341 -0.96494381,-0.228946 -0.06580366,-0.01914 -0.18181526,-0.05278 -0.25780241,-0.07477 -0.2004904,-0.05801 -0.61162102,-0.192597 -0.89455008,-0.292832 -0.088272,-0.03127 -0.2128708,-0.07497 -0.276892,-0.09711 -0.064027,-0.02213 -0.1838392,-0.0657 -0.2662662,-0.09682 -0.082432,-0.03112 -0.1990831,-0.07184 -0.2592353,-0.09049 -0.1680415,-0.05211 -0.1653824,-0.07902 0.013191,-0.133665 0.081828,-0.02503 0.1848181,-0.06173 0.2288729,-0.08153 0.6370298,-0.286307 1.03524474,-0.542461 1.38787779,-0.892752 0.23353622,-0.231982 0.51782381,-0.599916 0.70466579,-0.912 0.10164906,-0.169769 0.10905734,-0.188923 0.0731074,-0.188923 -0.0234441,0 -0.11672341,0.05583 -0.22546607,0.134946 -0.51779942,0.376755 -1.13094739,0.773465 -1.45547891,0.941701 -0.2327442,0.120654 -0.7305169,0.312139 -1.1749291,0.451978 -0.385954,0.121442 -0.4913432,0.15245 -0.6358384,0.187073 -0.1592177,0.03816 -0.1334699,0.04318 -0.6230261,-0.121612 -1.0912155,-0.367314 -1.8919045,-0.577264 -2.6148587,-0.685649 -0.1526397,-0.02289 -0.3454187,-0.05242 -0.4283985,-0.06563 -0.2285095,-0.03639 -0.906625,-0.05651 -1.3480135,-0.04 -0.5598257,0.02094 -0.9897615,0.106793 -1.778062,0.355063 -0.3932757,0.123857 -1.0733947,0.38915 -1.4831027,0.578514 -0.636478,0.294174 -1.219969,0.590604 -1.825726,0.92752 -0.278645,0.154979 -0.364772,0.204758 -0.764257,0.441714 -0.123411,0.0732 -0.229676,0.133092 -0.23615,0.133092 -0.03531,0 -0.122485,-0.123609 -0.199167,-0.282381 -0.114898,-0.237897 -0.126592,-0.303806 -0.05783,-0.325776 0.01241,-0.0039 0.08682,-0.04331 0.165397,-0.08747 0.222945,-0.125263 0.503284,-0.273283 0.829391,-0.437922 0.561974,-0.283717 0.742798,-0.375388 0.774848,-0.392813 0.01763,-0.0096 0.11347,-0.06008 0.212994,-0.112205 0.316288,-0.165656 0.709393,-0.432586 0.850342,-0.577403 0.183381,-0.188412 0.245975,-0.305459 0.268611,-0.502287 0.02472,-0.2148 -0.06505,-0.453026 -0.190693,-0.506118 -0.158912,-0.06715 -0.375831,-0.03516 -0.643608,0.09491 -0.157751,0.07663 -0.511024,0.294149 -0.643264,0.396077 -0.04387,0.03381 -0.115211,0.08697 -0.158558,0.118137 -0.202962,0.145948 -0.736952,0.611431 -1.075528,0.937542 -0.101127,0.0974 -0.225814,0.2166 -0.277088,0.264882 -0.05128,0.04828 -0.0975,0.09496 -0.102718,0.103739 -0.01541,0.02591 -0.215264,0.212804 -0.218798,0.204616 -0.002,-0.0042 -0.06335,-0.148554 -0.136819,-0.320955 -0.07347,-0.172399 -0.161617,-0.361863 -0.195883,-0.421031 -0.03427,-0.05917 -0.06761,-0.117433 -0.07411,-0.129477 -0.02994,-0.05557 -0.192061,-0.251849 -0.278399,-0.337085 -0.129383,-0.12774 -0.207725,-0.181261 -0.359118,-0.245344 -0.181706,-0.07692 -0.557497,-0.07703 -0.953609,-2.61e-4 -0.153034,0.02965 -0.302872,0.06263 -0.332972,0.07331 -0.451665,0.160186 -0.646774,0.251134 -0.902931,0.4209 -0.458554,0.303898 -0.743807,0.63652 -1.076095,1.254777 -0.474477,0.882822 -0.410456,1.279846 0.230125,1.427174 0.246087,0.0566 0.359773,0.06039 0.546328,0.01826 0.440902,-0.09957 0.880725,-0.383838 1.117387,-0.722177 0.08358,-0.119478 0.08725,-0.129499 0.04756,-0.129499 -0.02369,0 -0.08266,0.02912 -0.131116,0.0647 -0.04846,0.03559 -0.148539,0.09115 -0.222438,0.123485 -0.12221,0.05347 -0.153871,0.05877 -0.350202,0.05867 -0.19798,-1.08e-4 -0.224677,-0.0059 -0.322621,-0.06969 -0.219601,-0.143104 -0.245432,-0.446141 -0.0639,-0.749791 0.09923,-0.165874 0.304895,-0.406304 0.46016,-0.537773 0.264552,-0.22401 0.607278,-0.338571 1.023155,-0.342008 l 0.245241,-0.002 0.128374,0.09137 c 0.220147,0.156681 0.407491,0.510071 0.562731,1.061481 0.110323,0.39185 0.118048,0.446038 0.07152,0.501226 -0.02255,0.02677 -0.09109,0.109394 -0.152279,0.183609 l -0.111241,0.134947 h 0.05102 c 0.0356,0 0.08381,-0.02612 0.159532,-0.08637 0.120994,-0.09627 0.1566,-0.10627 0.158422,-0.04446 0.0015,0.04164 0.223525,0.412094 0.271361,0.452228 0.03038,0.02546 0.02654,0.02838 -0.446322,0.341533 -0.480175,0.317986 -0.627556,0.41894 -1.123606,0.769664 -0.535797,0.378827 -0.538633,0.381075 -0.479889,0.381075 0.02427,0 0.174709,-0.0753 0.33434,-0.167334 z"
       id="path1131-3" />
    <path
       style="opacity:0.372371;fill:#999999;stroke:none;stroke-width:0.0647739;stroke-linecap:round;stroke-linejoin:round"
       d="m -46.698034,54.207106 c -0.320936,0.623991 -0.567091,1.173767 -0.544157,1.21536 0.01501,0.02723 0.07097,0.07106 0.290709,0.227775 0.111728,0.07968 0.772192,0.62665 0.785234,0.650301 0.0045,0.0081 0.03845,0.04057 0.07545,0.07208 0.204453,0.174039 0.560418,0.567729 0.738,0.81622 0.123658,0.17303 0.31071,0.539189 0.348623,0.682449 0.07508,0.283663 0.109881,0.510708 0.10483,0.683832 -0.0013,0.0458 4.7e-5,0.08776 0.003,0.09325 0.0108,0.01965 -0.04873,0.377898 -0.08242,0.495513 -0.0758,0.264721 -0.164477,0.454324 -0.327978,0.701294 -0.10461,0.15802 -0.173101,0.186541 -0.201628,0.08396 -0.0095,-0.03442 -0.01814,-0.09338 -0.01905,-0.131058 -0.0034,-0.140148 -0.08227,-0.656682 -0.124459,-0.815062 -0.0127,-0.04767 -0.03142,-0.122889 -0.04161,-0.167151 -0.02028,-0.08821 -0.119621,-0.381011 -0.200512,-0.591039 -0.06325,-0.164201 -0.411031,-0.795392 -0.515651,-0.935942 -0.267252,-0.358843 -0.432002,-0.543159 -0.752342,-0.841702 -0.226958,-0.211516 -0.365625,-0.324261 -0.394956,-0.321125 -0.02967,0.0035 -0.198168,0.487724 -0.242371,0.697009 -0.04018,0.190216 -0.08007,0.595107 -0.07876,0.799243 5.41e-4,0.08084 6.89e-4,0.182277 3.76e-4,0.225431 -0.0014,0.199211 0.09667,0.796198 0.167321,1.018039 0.02185,0.06863 0.04198,0.146682 0.04469,0.173454 0.0027,0.02679 0.07256,0.225013 0.15517,0.440527 0.131135,0.342081 0.187194,0.45909 0.441393,0.921303 0.290035,0.527303 0.378823,0.664308 0.804018,1.240137 0.159989,0.216672 0.439255,0.571265 0.494274,0.627596 0.02081,0.02132 0.09484,0.106386 0.1645,0.189043 0.06966,0.08265 0.199255,0.229237 0.288005,0.325734 0.08875,0.09651 0.207649,0.227701 0.264219,0.291555 0.09047,0.102125 0.113911,0.11858 0.194719,0.1367 0.05052,0.01138 0.14219,0.02339 0.203699,0.02674 0.06151,0.0035 0.21227,0.01728 0.335025,0.03083 0.440954,0.04875 0.734033,-0.04338 0.883973,-0.277857 0.103611,-0.162049 0.0972,-0.250997 -0.03193,-0.442531 -0.08625,-0.12794 -0.238328,-0.257467 -0.376488,-0.320666 -0.249561,-0.114155 -0.606223,-0.135849 -0.702362,-0.04274 -0.119966,0.116212 -0.06629,0.291659 0.140091,0.457869 0.06053,0.04875 0.123902,0.09325 0.14084,0.09891 0.01694,0.0057 0.04051,0.02787 0.05237,0.04941 0.04512,0.08182 -0.270072,0.02147 -0.500534,-0.09587 -0.173034,-0.0881 -0.246635,-0.163623 -0.360304,-0.369761 -0.08904,-0.161474 -0.102973,-0.202043 -0.09547,-0.277883 0.02272,-0.229556 0.181136,-0.325782 0.580264,-0.352465 0.225318,-0.01507 0.451293,-0.0024 0.571116,0.03122 0.04461,0.01266 0.09238,0.02226 0.106166,0.02142 0.01378,-9.85e-4 0.108999,0.02782 0.211582,0.06374 0.490355,0.171656 0.804798,0.467299 0.996163,0.936602 0.165901,0.406867 0.155512,0.72451 -0.03336,1.019916 -0.178228,0.278764 -0.367934,0.383497 -0.829218,0.457811 -0.166512,0.02683 -0.309321,0.0538 -0.317353,0.05995 -0.008,0.0062 0.0095,0.03353 0.03905,0.06081 0.02949,0.02728 0.105933,0.107884 0.169852,0.179096 0.06391,0.0712 0.189086,0.208394 0.27816,0.304875 0.378911,0.410396 0.959797,1.053567 1.177185,1.303407 0.07092,0.08151 0.205554,0.235721 0.299168,0.342682 0.09361,0.106955 0.230088,0.265448 0.303277,0.352204 0.07319,0.08675 0.217655,0.25795 0.321032,0.380429 0.103379,0.122475 0.251736,0.302232 0.329685,0.399452 0.07795,0.09721 0.195973,0.243714 0.262275,0.325541 0.312229,0.385343 0.627138,0.80422 0.912156,1.213302 0.153433,0.220221 0.526353,0.896697 0.614985,1.115545 0.08746,0.215987 0.251979,0.679239 0.255039,0.718114 0.0013,0.0161 0.02247,0.102891 0.04714,0.192893 0.110822,0.404502 0.146227,0.76985 0.104749,1.081042 -0.04568,0.342767 -0.17171,0.54467 -0.439731,0.704474 -0.08558,0.05101 -0.118603,0.05708 -0.425397,0.07811 l -0.33263,0.02275 -0.230716,-0.06118 c -0.374541,-0.09932 -0.711479,-0.291674 -1.042914,-0.595382 -0.190224,-0.174311 -0.288818,-0.308422 -0.421233,-0.572974 -0.100058,-0.199915 -0.121584,-0.263607 -0.137171,-0.405921 -0.02762,-0.252242 0.0408,-0.428473 0.202309,-0.521093 0.07121,-0.04082 0.114492,-0.0491 0.274717,-0.05235 0.155878,-0.0029 0.214995,0.0044 0.327768,0.04314 0.260115,0.08882 0.436075,0.250922 0.577375,0.531926 0.07404,0.147238 0.07423,0.149567 0.01318,0.159749 -0.04745,0.0079 -0.06241,0.0035 -0.06391,-0.01901 -0.0035,-0.05229 -0.236256,-0.30909 -0.328354,-0.36226 -0.08771,-0.05063 -0.295151,-0.09849 -0.397276,-0.09169 -0.09143,0.0062 -0.213471,0.08786 -0.245945,0.164753 -0.01676,0.03969 -0.02976,0.126591 -0.0289,0.193169 0.0014,0.112146 0.01239,0.140517 0.148682,0.385677 0.138649,0.249298 0.155805,0.27256 0.297033,0.401638 0.379499,0.346833 0.683363,0.468732 1.031902,0.413957 0.432494,-0.06797 0.583966,-0.384723 0.462202,-0.96652 -0.03517,-0.168029 -0.08279,-0.315306 -0.232151,-0.717869 -0.07852,-0.211634 -0.81729,-1.552044 -0.943114,-1.711144 -0.05264,-0.06657 -0.17534,-0.225983 -0.272671,-0.354253 -0.254059,-0.334829 -0.409995,-0.5233 -0.78387,-0.947421 -0.05835,-0.06619 -0.16108,-0.182823 -0.228303,-0.259194 -0.177374,-0.201525 -0.562787,-0.621756 -0.838593,-0.914355 -0.08606,-0.09129 -0.206897,-0.219946 -0.268548,-0.285914 -0.06165,-0.06597 -0.18001,-0.190382 -0.26302,-0.276483 -0.08301,-0.0861 -0.195887,-0.206469 -0.25084,-0.267492 -0.153513,-0.170465 -0.189579,-0.18017 -0.179235,-0.0482 0.0048,0.06045 0.0036,0.13423 -0.0027,0.163951 -0.08998,0.429752 -0.253391,0.663875 -0.569542,0.815968 -0.209375,0.10072 -0.583027,0.185068 -0.926178,0.209069 -0.186667,0.01305 -0.209688,0.01103 -0.227044,-0.02048 -0.01126,-0.02053 0.02116,-0.07724 0.07852,-0.137065 0.273147,-0.284889 0.527961,-0.644342 0.604873,-0.853268 0.05515,-0.149833 0.0807,-0.500069 0.0603,-0.826679 -0.01773,-0.283642 -0.02556,-0.362057 -0.04725,-0.473103 -0.0239,-0.122358 -0.0045,-0.09756 -0.469719,-0.599982 -1.036987,-1.119893 -1.715164,-1.914974 -2.214767,-2.596541 -0.105481,-0.143904 -0.239584,-0.325931 -0.298003,-0.404508 -0.160877,-0.216386 -0.516261,-0.819209 -0.706461,-1.198337 -0.241243,-0.480865 -0.329625,-0.818948 -0.365523,-1.398189 -0.01791,-0.288981 0.02207,-0.765872 0.08719,-1.039933 0.101161,-0.425754 0.231047,-0.804101 0.4064,-1.183832 0.08067,-0.174674 0.108198,-0.227824 0.244343,-0.471646 0.04206,-0.07532 0.07391,-0.141585 0.07079,-0.147253 -0.01705,-0.03092 -0.230792,-0.162556 -0.488296,-0.300734 -0.385832,-0.207035 -0.483006,-0.246767 -0.480308,-0.196374 4.93e-4,0.0091 -0.01823,0.05664 -0.04159,0.105701 -0.06629,0.139192 -0.136469,0.318466 -0.207623,0.53038 -0.122621,0.36519 -0.162603,0.482529 -0.171327,0.502797 -0.0048,0.01115 -0.02863,0.07249 -0.05295,0.136326 -0.07731,0.202859 -0.25816,0.427684 -0.391199,0.486325 -0.173087,0.0763 -0.305399,0.07874 -0.567792,0.01045 -0.286352,-0.07447 -0.660505,-0.259633 -0.794899,-0.393408 -0.169983,-0.1692 -0.230306,-0.344839 -0.17898,-0.521138 0.03024,-0.103867 0.161709,-0.31591 0.239395,-0.386112 0.02577,-0.02329 0.06514,-0.06198 0.08748,-0.086 0.104669,-0.112436 0.493204,-0.371812 0.782567,-0.522403 0.08644,-0.04496 0.191743,-0.100836 0.234022,-0.124154 0.04229,-0.02329 0.0848,-0.04289 0.09446,-0.04353 0.02853,-0.002 0.191564,-0.0933 0.178491,-0.100058 -0.0066,-0.0035 -0.236877,-0.121929 -0.511756,-0.26339 -0.274878,-0.141463 -0.58054,-0.303414 -0.679247,-0.359887 -0.09871,-0.05648 -0.195722,-0.111752 -0.215583,-0.12282 -0.09163,-0.05109 -0.442469,-0.280852 -0.602519,-0.394586 -0.239861,-0.17045 -0.352012,-0.262996 -0.514105,-0.424238 -0.194544,-0.193523 -0.376175,-0.52266 -0.460832,-0.835182 -0.03273,-0.120747 -0.05928,-0.237199 -0.05899,-0.258787 0.0043,-0.323857 0.03643,-0.454023 0.148476,-0.602394 0.200584,-0.265596 0.524735,-0.366588 1.22282,-0.380981 0.996813,-0.02053 1.579048,0.213126 2.092954,0.839988 0.197424,0.240814 0.257597,0.342066 0.289168,0.486581 0.07463,0.34155 -0.107734,0.599529 -0.463291,0.655407 -0.125556,0.01974 -0.137696,0.01846 -0.156865,-0.0163 -0.01138,-0.02073 4.93e-4,-0.05937 0.02654,-0.08587 0.02602,-0.02649 0.05485,-0.08929 0.06406,-0.139547 0.01523,-0.08309 0.0073,-0.108454 -0.08763,-0.280422 -0.09575,-0.173419 -0.116649,-0.199378 -0.252566,-0.313695 -0.304759,-0.256324 -0.738041,-0.414508 -1.072047,-0.39139 -0.182423,0.0127 -0.416986,0.08523 -0.524577,0.162375 -0.183322,0.131456 -0.176915,0.380325 0.01913,0.742969 l 0.115618,0.21385 0.188864,0.15329 c 0.323877,0.262873 0.905074,0.585027 1.745746,0.967648 0.597408,0.271903 0.676389,0.302915 0.730555,0.286852 0.02628,-0.0078 0.10792,-0.03082 0.181435,-0.05121 l 0.133676,-0.03703 0.02464,0.04466 c 0.01717,0.03117 0.0042,0.06172 -0.04289,0.101068 -0.07527,0.06289 -0.07195,0.0896 0.01476,0.118841 0.05842,0.01969 0.680185,0.380094 0.759013,0.439941 0.05004,0.03797 0.05224,0.03595 0.25875,-0.238057 0.209706,-0.278226 0.278728,-0.362121 0.526227,-0.63961 0.267333,-0.299719 0.269088,-0.301192 0.297452,-0.249755 0.01172,0.02123 -0.0202,0.119309 -0.07092,0.217922 z"
       id="path1131-6" />
    <path
       style="opacity:0.372371;fill:#999999;stroke:none;stroke-width:0.0647739;stroke-linecap:round;stroke-linejoin:round"
       d="m -73.948549,18.785271 c 0.320935,-0.623991 0.567091,-1.173767 0.544157,-1.21536 -0.01501,-0.02723 -0.07097,-0.07106 -0.290709,-0.227775 -0.111728,-0.07968 -0.772193,-0.62665 -0.785233,-0.6503 -0.0045,-0.0081 -0.03845,-0.04057 -0.07545,-0.07208 -0.204453,-0.17404 -0.560418,-0.567729 -0.737999,-0.81622 -0.123659,-0.17303 -0.310712,-0.539189 -0.348624,-0.682449 -0.07508,-0.283662 -0.109882,-0.510708 -0.104831,-0.683832 0.0013,-0.04579 -4.6e-5,-0.08776 -0.003,-0.09326 -0.0108,-0.01965 0.04873,-0.377898 0.08242,-0.495513 0.0758,-0.26472 0.164479,-0.454324 0.327979,-0.701293 0.104611,-0.158022 0.173102,-0.186542 0.201629,-0.08396 0.0095,0.03442 0.01814,0.09338 0.01906,0.131058 0.0034,0.140147 0.08227,0.656681 0.124459,0.815062 0.0127,0.04767 0.03142,0.122888 0.04161,0.167151 0.02029,0.08822 0.11962,0.38101 0.200512,0.591039 0.06324,0.164201 0.411031,0.795391 0.515651,0.935942 0.267252,0.358843 0.432002,0.543158 0.752342,0.841701 0.226958,0.211516 0.365625,0.324261 0.394956,0.321125 0.02967,-0.0034 0.198168,-0.487724 0.242371,-0.697009 0.04018,-0.190215 0.08007,-0.595107 0.07876,-0.799242 -5.42e-4,-0.08084 -6.9e-4,-0.182277 -3.76e-4,-0.225431 0.0014,-0.199211 -0.09667,-0.796199 -0.167321,-1.01804 -0.02185,-0.06863 -0.04198,-0.146682 -0.04469,-0.173454 -0.0027,-0.02679 -0.07256,-0.225012 -0.15517,-0.440527 -0.131135,-0.342081 -0.187193,-0.45909 -0.441393,-0.921303 -0.290034,-0.527302 -0.378823,-0.664308 -0.804018,-1.240137 -0.159989,-0.216672 -0.439254,-0.571265 -0.494274,-0.627596 -0.02082,-0.02132 -0.09484,-0.106387 -0.1645,-0.189042 -0.06966,-0.08265 -0.199255,-0.229238 -0.288005,-0.325734 -0.08875,-0.0965 -0.207649,-0.2277011 -0.264219,-0.2915557 -0.09047,-0.1021193 -0.113911,-0.1185801 -0.194718,-0.1367005 -0.05052,-0.011321 -0.142191,-0.02339 -0.203698,-0.026737 -0.06151,-0.00345 -0.212272,-0.017283 -0.335027,-0.030824 -0.440954,-0.048747 -0.734033,0.04338 -0.883973,0.2778572 -0.103611,0.162049 -0.0972,0.250997 0.03193,0.442531 0.08625,0.127941 0.238328,0.257467 0.376488,0.320667 0.249561,0.114158 0.606223,0.135848 0.702362,0.04274 0.119966,-0.116212 0.06629,-0.291659 -0.140091,-0.457869 -0.06053,-0.04875 -0.123902,-0.09326 -0.14084,-0.09891 -0.01694,-0.0057 -0.04051,-0.02787 -0.05237,-0.04941 -0.04512,-0.08182 0.270073,-0.02147 0.500535,0.09587 0.173034,0.08809 0.246636,0.163615 0.360304,0.369754 0.08904,0.161473 0.102973,0.202042 0.09547,0.277882 -0.02272,0.229557 -0.181137,0.325782 -0.580265,0.352466 -0.225318,0.01507 -0.451293,0.0025 -0.571116,-0.03122 -0.04461,-0.01265 -0.09238,-0.02226 -0.106166,-0.02142 -0.01378,9.84e-4 -0.108999,-0.02782 -0.211582,-0.06374 -0.490355,-0.171657 -0.804798,-0.467299 -0.996162,-0.936602 -0.165901,-0.4068668 -0.155512,-0.72451 0.03336,-1.0199164 0.178228,-0.2787633 0.367934,-0.3834972 0.829218,-0.4578103 0.166512,-0.026836 0.309321,-0.0538 0.317353,-0.05995 0.008,-0.00615 -0.0095,-0.033532 -0.03905,-0.060816 -0.02949,-0.027279 -0.105934,-0.1078904 -0.169852,-0.1790963 -0.06391,-0.071201 -0.189087,-0.2083941 -0.278161,-0.3048753 -0.378911,-0.410397 -0.959796,-1.0535668 -1.177184,-1.3034065 -0.07093,-0.081517 -0.205555,-0.2357223 -0.299167,-0.3426818 -0.09361,-0.1069544 -0.230089,-0.2654487 -0.303279,-0.3522049 -0.07319,-0.086756 -0.217655,-0.2579495 -0.32103,-0.3804295 -0.10338,-0.122475 -0.251737,-0.302231 -0.329685,-0.3994508 -0.07795,-0.097219 -0.195974,-0.2437141 -0.262276,-0.3255414 -0.31223,-0.3853435 -0.627138,-0.8042196 -0.912155,-1.2133019 -0.153435,-0.2202216 -0.526355,-0.8966972 -0.614985,-1.1155457 -0.08746,-0.2159863 -0.25198,-0.6792385 -0.25504,-0.7181134 -0.0013,-0.016105 -0.02247,-0.1028915 -0.04713,-0.1928928 -0.110822,-0.4045038 -0.146227,-0.7698506 -0.10475,-1.08104366 0.04568,-0.3427654 0.17171,-0.5446689 0.439732,-0.704473 0.08558,-0.05101 0.118603,-0.057083 0.425396,-0.078112 l 0.332631,-0.022747 0.230716,0.061182 c 0.37454,0.099315 0.711477,0.2916738 1.042913,0.595382 0.190223,0.1743106 0.288818,0.3084214 0.421233,0.57297366 0.100058,0.1999145 0.121584,0.2636072 0.13717,0.4059205 0.02763,0.2522427 -0.0408,0.4284739 -0.202308,0.5210937 -0.07122,0.040815 -0.114492,0.049094 -0.274718,0.052346 -0.155878,0.0029 -0.214994,-0.00441 -0.327767,-0.043138 -0.260116,-0.088818 -0.436075,-0.2509225 -0.577375,-0.5319263 -0.07404,-0.1472379 -0.07423,-0.1495672 -0.01318,-0.1597495 0.04744,-0.0079 0.06241,-0.00348 0.06391,0.019008 0.0035,0.052288 0.236257,0.3090902 0.328354,0.3622603 0.08772,0.050627 0.29515,0.098491 0.397275,0.091686 0.09143,-0.00615 0.213473,-0.087866 0.245946,-0.164753 0.01676,-0.039689 0.02976,-0.1265922 0.0289,-0.1931692 -0.0014,-0.112146 -0.01238,-0.140517 -0.148683,-0.3856788 -0.138648,-0.24929796 -0.155805,-0.27255856 -0.297032,-0.40163686 -0.379499,-0.346833 -0.683363,-0.4687318 -1.031902,-0.4139569 -0.432494,0.067975 -0.583966,0.3847232 -0.462202,0.96652066 0.03517,0.1680368 0.08279,0.3153141 0.232152,0.7178764 0.07852,0.2116342 0.817289,1.5520449 0.943112,1.7111447 0.05264,0.066568 0.175341,0.2259828 0.272672,0.3542533 0.254058,0.3348281 0.409995,0.5232997 0.78387,0.9474199 0.05835,0.066183 0.16108,0.1828237 0.228303,0.2591952 0.177375,0.2015252 0.562787,0.6217554 0.838593,0.9143551 0.08606,0.091287 0.206897,0.2199459 0.268548,0.2859129 0.06165,0.065962 0.18001,0.1903822 0.263019,0.2764835 0.08301,0.086096 0.195888,0.2064688 0.25084,0.2674921 0.153514,0.1704645 0.189579,0.1801697 0.179236,0.048206 -0.0048,-0.060452 -0.0036,-0.1342286 0.0027,-0.16395 0.08998,-0.4297532 0.253391,-0.6638753 0.569543,-0.8159683 0.209374,-0.1007213 0.583026,-0.1850691 0.926177,-0.2090688 0.186666,-0.013049 0.209689,-0.010985 0.227044,0.020484 0.01126,0.020533 -0.02116,0.077238 -0.07852,0.1370649 -0.273146,0.2848887 -0.527961,0.6443417 -0.604872,0.8532677 -0.05516,0.1498328 -0.0807,0.5000682 -0.0603,0.8266781 0.01773,0.283643 0.02556,0.3620579 0.04725,0.4731043 0.0239,0.1223568 0.0045,0.097564 0.469718,0.5999813 1.036988,1.1198933 1.715165,1.9149741 2.214767,2.5965411 0.105481,0.143905 0.239584,0.325931 0.298004,0.404508 0.160878,0.216386 0.516261,0.819209 0.706462,1.198338 0.241243,0.480865 0.329624,0.818947 0.365522,1.398189 0.0179,0.288981 -0.02207,0.765871 -0.08719,1.039932 -0.101161,0.425755 -0.231046,0.804102 -0.4064,1.183832 -0.08067,0.174674 -0.108198,0.227824 -0.244343,0.471647 -0.04206,0.07532 -0.07391,0.141585 -0.07079,0.147252 0.01705,0.03092 0.230793,0.162557 0.488296,0.300734 0.385833,0.207036 0.483005,0.246768 0.480308,0.196375 -4.92e-4,-0.0091 0.01823,-0.05664 0.04159,-0.105704 0.06629,-0.139192 0.136469,-0.318465 0.207624,-0.53038 0.122621,-0.36519 0.162602,-0.482529 0.171326,-0.502796 0.0048,-0.01112 0.02862,-0.07249 0.05295,-0.136327 0.07731,-0.202859 0.258161,-0.427685 0.391199,-0.486325 0.173086,-0.0763 0.3054,-0.07874 0.567792,-0.01049 0.286351,0.07446 0.660504,0.259633 0.7949,0.393409 0.169981,0.169199 0.230305,0.344839 0.178978,0.521138 -0.03024,0.103862 -0.161707,0.31591 -0.239393,0.386112 -0.02577,0.02329 -0.06514,0.06199 -0.08748,0.086 -0.104668,0.11244 -0.493203,0.371813 -0.782566,0.522404 -0.08644,0.04496 -0.191744,0.100838 -0.234022,0.124154 -0.04229,0.02329 -0.0848,0.04289 -0.09446,0.04353 -0.02853,0.002 -0.191565,0.0933 -0.178491,0.100055 0.0066,0.0034 0.236878,0.121929 0.511756,0.263391 0.274878,0.141462 0.580539,0.303413 0.679248,0.359886 0.09871,0.05648 0.19572,0.111746 0.215581,0.12282 0.09163,0.05109 0.44247,0.280851 0.602521,0.394586 0.239861,0.17045 0.352011,0.262997 0.514103,0.424238 0.194545,0.193524 0.376175,0.52266 0.460834,0.835182 0.03273,0.120747 0.05928,0.2372 0.05899,0.258787 -0.0043,0.323857 -0.03643,0.454024 -0.148476,0.602394 -0.200585,0.265596 -0.524735,0.366588 -1.222821,0.380981 -0.996812,0.02053 -1.579047,-0.213126 -2.092953,-0.839988 -0.197423,-0.240814 -0.257597,-0.342066 -0.289167,-0.486581 -0.07463,-0.34155 0.107734,-0.599529 0.463289,-0.655406 0.125557,-0.01975 0.137697,-0.01846 0.156866,0.0163 0.01138,0.02073 -4.93e-4,0.05936 -0.02654,0.08587 -0.02602,0.02649 -0.05485,0.0893 -0.06406,0.139547 -0.01523,0.0831 -0.0073,0.108451 0.08763,0.280422 0.09575,0.173419 0.116649,0.199379 0.252565,0.313695 0.304759,0.256324 0.738042,0.414508 1.072047,0.39139 0.182424,-0.0127 0.416987,-0.08523 0.524576,-0.162374 0.183324,-0.131457 0.176917,-0.380326 -0.01912,-0.74297 l -0.115618,-0.21385 -0.188865,-0.15329 c -0.323876,-0.262873 -0.905074,-0.585027 -1.745745,-0.967647 -0.597407,-0.271905 -0.676389,-0.302916 -0.730554,-0.286854 -0.02628,0.0078 -0.10792,0.03083 -0.181436,0.05121 l -0.133675,0.03703 -0.02464,-0.04466 c -0.01717,-0.03117 -0.0042,-0.06171 0.04289,-0.101065 0.07527,-0.06288 0.07195,-0.08959 -0.01476,-0.118841 -0.05842,-0.0197 -0.680185,-0.380095 -0.759015,-0.439941 -0.05003,-0.03796 -0.05224,-0.03595 -0.258748,0.238056 -0.209706,0.278227 -0.278729,0.362122 -0.526229,0.63961 -0.267332,0.29972 -0.269086,0.301192 -0.297452,0.249756 -0.01172,-0.02122 0.02021,-0.119309 0.07093,-0.217922 z"
       id="path1131-6-7" />
    <path
       style="opacity:0.372371;fill:#999999;stroke:none;stroke-width:0.0647739;stroke-linecap:round;stroke-linejoin:round"
       d="m -12.150274,46.78079 c 0.320931,0.623991 0.567088,1.173767 0.544156,1.21536 -0.01501,0.02723 -0.07097,0.07106 -0.290708,0.227776 -0.11174,0.07968 -0.772194,0.62665 -0.785233,0.6503 -0.0044,0.0081 -0.03846,0.04057 -0.07545,0.07208 -0.204455,0.174039 -0.560421,0.567729 -0.738002,0.816219 -0.123661,0.17303 -0.31071,0.53919 -0.348625,0.682449 -0.07508,0.283663 -0.109881,0.510709 -0.10483,0.683833 0.0015,0.0458 -4.6e-5,0.08776 -0.0029,0.09325 -0.0108,0.01965 0.04875,0.377899 0.08242,0.495514 0.0758,0.264719 0.164481,0.454324 0.327978,0.701293 0.10461,0.158021 0.173104,0.186541 0.201629,0.08396 0.0095,-0.03442 0.01813,-0.09338 0.01905,-0.131058 0.0035,-0.140147 0.08227,-0.656682 0.124459,-0.815062 0.0127,-0.04767 0.03142,-0.122888 0.04161,-0.167151 0.02029,-0.08821 0.119624,-0.38101 0.200511,-0.591039 0.06325,-0.164202 0.411032,-0.795391 0.515653,-0.935942 0.267251,-0.358842 0.432004,-0.543158 0.75234,-0.841701 0.226958,-0.211516 0.365629,-0.324261 0.39496,-0.321125 0.02965,0.0035 0.198168,0.487724 0.24237,0.697009 0.04018,0.190214 0.08008,0.595107 0.07876,0.799241 -4.93e-4,0.08084 -4.93e-4,0.182278 -3.8e-4,0.225432 0.0015,0.19921 -0.09667,0.796198 -0.167318,1.01804 -0.02187,0.06863 -0.04195,0.146682 -0.04471,0.173453 -0.0029,0.02679 -0.07256,0.225013 -0.155171,0.440528 -0.131136,0.34208 -0.187192,0.45909 -0.441393,0.921302 -0.290034,0.527303 -0.378825,0.664309 -0.804018,1.240139 -0.159987,0.216671 -0.439257,0.571264 -0.494273,0.627595 -0.02083,0.02132 -0.09484,0.106386 -0.164501,0.189042 -0.06966,0.08265 -0.199255,0.229238 -0.288006,0.325734 -0.08875,0.09651 -0.207645,0.227701 -0.264218,0.291555 -0.09047,0.102113 -0.113911,0.11858 -0.19472,0.136701 -0.05052,0.01138 -0.142191,0.02339 -0.203697,0.02674 -0.06151,0.0035 -0.212269,0.01728 -0.335025,0.03083 -0.440955,0.04875 -0.734033,-0.04338 -0.883974,-0.277857 -0.103611,-0.16205 -0.0972,-0.250997 0.03191,-0.442531 0.08625,-0.127941 0.238327,-0.257467 0.376491,-0.320667 0.249559,-0.114155 0.60622,-0.135849 0.702361,-0.04274 0.119964,0.116212 0.06628,0.291659 -0.140094,0.457869 -0.06052,0.04875 -0.123903,0.09325 -0.140836,0.09891 -0.01694,0.0057 -0.04053,0.02787 -0.05238,0.04941 -0.0451,0.08182 0.270072,0.02147 0.500536,-0.09587 0.173034,-0.08809 0.246634,-0.163615 0.360305,-0.369754 0.08904,-0.161473 0.102973,-0.202042 0.09547,-0.277882 -0.0227,-0.229558 -0.181134,-0.325783 -0.580261,-0.352465 -0.225322,-0.01507 -0.451295,-0.0024 -0.571116,0.03122 -0.04461,0.01266 -0.09238,0.02226 -0.106166,0.02142 -0.01378,-9.85e-4 -0.108999,0.02782 -0.211579,0.06374 -0.490359,0.171656 -0.804801,0.467299 -0.996163,0.936602 -0.165905,0.406865 -0.155515,0.724509 0.03334,1.019916 0.178229,0.278763 0.367931,0.383497 0.829213,0.45781 0.166516,0.02683 0.309323,0.0538 0.317353,0.05995 0.008,0.0062 -0.0095,0.03354 -0.03905,0.06081 -0.02949,0.02728 -0.105934,0.107896 -0.169848,0.179097 -0.06391,0.0712 -0.189088,0.208393 -0.278163,0.304875 -0.378908,0.410397 -0.959794,1.053567 -1.177185,1.303406 -0.07092,0.08151 -0.205552,0.235722 -0.299168,0.342681 -0.09361,0.106956 -0.230084,0.265449 -0.303275,0.352205 -0.07319,0.08675 -0.217656,0.25795 -0.321031,0.38043 -0.103379,0.122475 -0.251735,0.302232 -0.329687,0.399451 -0.07795,0.09723 -0.195971,0.243714 -0.262273,0.325542 -0.312232,0.385343 -0.627137,0.804218 -0.912159,1.213301 -0.153433,0.220222 -0.526353,0.896698 -0.614985,1.115545 -0.08746,0.215988 -0.251977,0.679239 -0.255039,0.718114 -0.0015,0.0161 -0.02246,0.102891 -0.04712,0.192894 -0.110822,0.404502 -0.146224,0.769849 -0.104749,1.081042 0.04569,0.342766 0.171706,0.54467 0.439729,0.704474 0.08558,0.05101 0.118605,0.05708 0.425395,0.07811 l 0.332632,0.02275 0.230716,-0.06118 c 0.37454,-0.09932 0.711475,-0.291674 1.042915,-0.595382 0.19022,-0.174311 0.288814,-0.308421 0.421231,-0.572973 0.100058,-0.199915 0.121583,-0.263608 0.137173,-0.405921 0.02762,-0.252243 -0.04082,-0.428473 -0.202314,-0.521094 -0.07121,-0.04081 -0.114491,-0.0491 -0.274715,-0.05235 -0.15588,-0.0029 -0.214992,0.0044 -0.327767,0.04314 -0.260116,0.08882 -0.436075,0.250922 -0.577375,0.531926 -0.07404,0.147238 -0.07423,0.149567 -0.01319,0.159751 0.04747,0.0079 0.06241,0.0035 0.06391,-0.01901 0.0035,-0.05229 0.236259,-0.30909 0.328359,-0.362259 0.08771,-0.05064 0.29515,-0.09849 0.397274,-0.09169 0.09142,0.0062 0.21347,0.08787 0.245945,0.164752 0.01674,0.03969 0.02974,0.126592 0.0289,0.193169 -0.0015,0.112146 -0.01235,0.140517 -0.148681,0.385679 -0.13865,0.249298 -0.155805,0.272558 -0.297036,0.401637 -0.379498,0.346833 -0.683359,0.468731 -1.031901,0.413957 -0.432491,-0.06797 -0.583964,-0.384724 -0.462202,-0.96652 0.03516,-0.168037 0.0828,-0.315314 0.232152,-0.717878 0.07852,-0.211634 0.817288,-1.552044 0.943112,-1.711144 0.05263,-0.06657 0.175344,-0.225982 0.272672,-0.354253 0.254059,-0.334828 0.409997,-0.5233 0.783873,-0.94742 0.05835,-0.06619 0.16108,-0.182824 0.228303,-0.259195 0.177372,-0.201525 0.562785,-0.621755 0.838594,-0.914355 0.08604,-0.09128 0.206892,-0.219946 0.268545,-0.285914 0.06165,-0.06597 0.180012,-0.190381 0.263021,-0.276483 0.08301,-0.0861 0.195888,-0.206468 0.25084,-0.267491 0.153511,-0.170465 0.189579,-0.18017 0.179234,-0.04821 -0.0049,0.06045 -0.0035,0.134229 0.0024,0.163951 0.08998,0.429753 0.25339,0.663874 0.569541,0.815968 0.209379,0.10072 0.583028,0.185069 0.926178,0.209068 0.186669,0.01305 0.209689,0.01103 0.227045,-0.02048 0.01138,-0.02053 -0.02117,-0.07724 -0.07852,-0.137065 -0.273145,-0.284887 -0.527958,-0.644341 -0.60487,-0.853266 -0.05516,-0.149834 -0.0807,-0.500069 -0.0603,-0.826679 0.01773,-0.283643 0.02556,-0.362058 0.04727,-0.473104 0.02389,-0.122357 0.0044,-0.09756 0.469723,-0.599982 1.036987,-1.119893 1.715162,-1.914973 2.214767,-2.596541 0.105481,-0.143904 0.239582,-0.32593 0.298001,-0.404507 0.160878,-0.216386 0.516263,-0.819209 0.706463,-1.198339 0.241243,-0.480864 0.329624,-0.818947 0.3655201,-1.398189 0.017929,-0.28898 -0.022062,-0.765871 -0.087192,-1.039932 -0.101162,-0.425755 -0.231049,-0.804101 -0.406404,-1.183831 -0.08066,-0.174675 -0.108198,-0.227824 -0.24434,-0.471647 -0.04205,-0.07533 -0.07392,-0.141586 -0.07078,-0.147253 0.01703,-0.03092 0.230794,-0.162556 0.488295,-0.300734 0.3858363,-0.207035 0.4830067,-0.246767 0.4803082,-0.196375 -4.924e-4,0.0091 0.018219,0.05664 0.041605,0.105702 0.066291,0.139192 0.1364691,0.318465 0.2076258,0.530381 0.1226175,0.365188 0.1626013,0.482528 0.1713264,0.502795 0.00488,0.01115 0.028611,0.07249 0.052949,0.136327 0.077311,0.202859 0.2581612,0.427685 0.3912025,0.486324 0.1730844,0.0763 0.3053977,0.07874 0.5677879,0.01045 0.2863522,-0.07447 0.6605076,-0.259634 0.7948994,-0.393409 0.1699864,-0.169199 0.2303058,-0.344839 0.1789832,-0.521139 -0.030237,-0.103867 -0.1617096,-0.31591 -0.2393967,-0.386111 -0.025755,-0.02329 -0.06513,-0.06198 -0.087483,-0.086 -0.1046682,-0.112436 -0.4932035,-0.371812 -0.7825677,-0.522403 -0.086438,-0.04496 -0.1917422,-0.100837 -0.234024,-0.124154 -0.042301,-0.02329 -0.0848,-0.04288 -0.094461,-0.04353 -0.028507,-0.002 -0.1915644,-0.0933 -0.1784861,-0.100058 0.00662,-0.0035 0.2368745,-0.121928 0.5117532,-0.26339 0.2748786,-0.141462 0.580541,-0.303413 0.6792477,-0.359887 0.098711,-0.05648 0.1957203,-0.111751 0.2155833,-0.122819 0.091628,-0.05109 0.4424672,-0.280851 0.6025174,-0.394585 0.2398635,-0.17045 0.352013,-0.262998 0.5141069,-0.424239 0.1945429,-0.193524 0.3761747,-0.522659 0.4608335,-0.835182 0.032745,-0.120747 0.059278,-0.2372 0.058988,-0.258787 -0.00441,-0.323857 -0.036438,-0.454023 -0.1484792,-0.602393 -0.2005798,-0.265598 -0.5247328,-0.366588 -1.2228205,-0.380981 -0.9968122,-0.02053 -1.5790428,0.213125 -2.0929523,0.839988 -0.1974238,0.240813 -0.2575946,0.342066 -0.289168,0.486581 -0.074629,0.341548 0.1077336,0.599527 0.4632916,0.655405 0.1255577,0.01975 0.1377,0.01846 0.156864,-0.0163 0.01138,-0.02073 -4.923e-4,-0.05936 -0.026544,-0.08587 -0.026045,-0.02649 -0.054854,-0.08929 -0.064062,-0.139547 -0.015211,-0.08309 -0.00732,-0.108453 0.087634,-0.280423 0.09575,-0.173419 0.1166503,-0.199378 0.2525621,-0.313694 0.3047625,-0.256324 0.7380413,-0.414509 1.0720469,-0.39139 0.1824248,0.0127 0.4169899,0.08523 0.5245806,0.162374 0.1833202,0.131457 0.176914,0.380326 -0.019101,0.742971 l -0.1156179,0.213849 -0.1888659,0.15329 c -0.3238766,0.262874 -0.9050726,0.585027 -1.7457454,0.967647 -0.5974059,0.271905 -0.6763869,0.302917 -0.7305569,0.286854 -0.02629,-0.0078 -0.107919,-0.03083 -0.181434,-0.05121 l -0.133673,-0.03703 -0.02462,0.04466 c -0.01719,0.03117 -0.0039,0.06172 0.04288,0.101069 0.07527,0.06289 0.07195,0.0896 -0.01477,0.118841 -0.05842,0.01969 -0.680184,0.380095 -0.759012,0.439942 -0.05002,0.03796 -0.05224,0.03595 -0.258748,-0.238057 -0.209708,-0.278226 -0.278728,-0.362122 -0.526228,-0.63961 -0.267336,-0.299719 -0.269088,-0.301192 -0.297451,-0.249755 -0.01172,0.02123 0.02019,0.119308 0.07092,0.217922 z"
       id="path1131-6-5" />
    <path
       style="opacity:0.372371;fill:#999999;stroke:none;stroke-width:0.0647739;stroke-linecap:round;stroke-linejoin:round"
       d="m 15.250874,12.899427 c -0.320933,-0.623991 -0.567089,-1.173767 -0.544158,-1.21536 0.01501,-0.02723 0.07097,-0.07106 0.290709,-0.227775 0.111739,-0.07968 0.772194,-0.62665 0.785232,-0.6503 0.0044,-0.0081 0.03846,-0.04057 0.07545,-0.07208 0.204455,-0.17404 0.560423,-0.567729 0.738002,-0.8162198 0.123662,-0.1730299 0.31071,-0.5391895 0.348625,-0.6824488 0.07508,-0.2836626 0.109882,-0.5107089 0.104831,-0.6838323 -0.0015,-0.045793 4.4e-5,-0.08776 0.0029,-0.093256 0.0108,-0.019647 -0.04875,-0.3778984 -0.08242,-0.4955135 -0.0758,-0.2647198 -0.164483,-0.454324 -0.32798,-0.7012929 -0.10461,-0.1580215 -0.173104,-0.1865414 -0.201628,-0.083964 -0.0095,0.034418 -0.01813,0.093379 -0.01905,0.1310576 -0.0035,0.1401473 -0.08227,0.6566814 -0.124459,0.8150623 -0.0127,0.047665 -0.03141,0.1228887 -0.0416,0.1671506 -0.02029,0.088219 -0.119624,0.3810104 -0.200511,0.5910393 -0.06324,0.1642011 -0.411032,0.7953909 -0.515652,0.935942 -0.267251,0.3588425 -0.432004,0.5431585 -0.75234,0.8417015 -0.226959,0.211516 -0.365628,0.324261 -0.394961,0.321124 -0.02964,-0.0035 -0.198166,-0.487723 -0.24237,-0.697009 -0.04018,-0.190214 -0.08007,-0.5951063 -0.07876,-0.7992413 4.92e-4,-0.080837 4.92e-4,-0.1822772 3.78e-4,-0.2254312 -0.0015,-0.1992108 0.09667,-0.7961984 0.167318,-1.0180401 0.02187,-0.068626 0.04195,-0.1466814 0.04471,-0.1734533 0.0029,-0.026787 0.07256,-0.2250127 0.155171,-0.440527 0.131136,-0.3420812 0.187192,-0.4590905 0.441393,-0.9213028 0.290036,-0.527303 0.378825,-0.6643088 0.804018,-1.2401378 0.159987,-0.2166715 0.439257,-0.5712645 0.494273,-0.6275953 0.02083,-0.021321 0.09485,-0.1063878 0.164501,-0.1890427 0.06966,-0.082655 0.199256,-0.2292376 0.288006,-0.3257335 0.08875,-0.0965 0.207646,-0.2277012 0.264218,-0.2915558 0.09047,-0.1021193 0.113911,-0.1185801 0.194721,-0.1367005 0.05052,-0.011321 0.14219,-0.023389 0.203696,-0.026737 0.06151,-0.00345 0.212269,-0.017283 0.335025,-0.030825 0.440955,-0.048748 0.734033,0.04338 0.883974,0.2778573 0.103611,0.1620493 0.0972,0.2509967 -0.03191,0.442531 -0.08625,0.1279407 -0.238327,0.2574669 -0.37649,0.3206666 -0.249559,0.1141584 -0.60622,0.1358487 -0.702361,0.042741 -0.119965,-0.1162118 -0.06628,-0.2916593 0.140093,-0.4578695 0.06053,-0.048748 0.123903,-0.093256 0.140836,-0.098913 0.01694,-0.00567 0.04053,-0.02787 0.05238,-0.049408 0.0451,-0.081817 -0.270073,-0.021469 -0.500537,0.09587 -0.173034,0.088085 -0.246634,0.1636152 -0.360305,0.3697542 -0.08904,0.1614732 -0.102972,0.2020422 -0.09547,0.2778819 0.0227,0.2295576 0.181135,0.3257827 0.580261,0.3524658 0.225323,0.015067 0.451296,0.00246 0.571117,-0.031218 0.04461,-0.012655 0.09238,-0.022256 0.106166,-0.021419 0.01378,9.848e-4 0.108999,-0.027821 0.211581,-0.063737 C 18.737854,5.1226745 19.052298,4.8270318 19.243659,4.3577288 19.409564,3.9508624 19.399175,3.6332191 19.210319,3.3378126 19.032089,3.05905 18.842386,2.9543157 18.381104,2.880003 18.214589,2.853168 18.071783,2.826206 18.063751,2.820052 c -0.008,-0.00615 0.0095,-0.033535 0.03905,-0.060811 0.02949,-0.027276 0.105934,-0.1078845 0.16985,-0.1790969 0.06391,-0.071203 0.189086,-0.2083934 0.278162,-0.3048752 0.378908,-0.4103968 0.959794,-1.0535668 1.177184,-1.30340586 0.07093,-0.081514 0.205553,-0.2357227 0.299168,-0.3426818 0.09361,-0.1069556 0.230084,-0.2654488 0.303275,-0.3522046 0.07319,-0.086751 0.217656,-0.2579499 0.321031,-0.3804304 0.103379,-0.1224747 0.251735,-0.3022312 0.329688,-0.3994504 0.07795,-0.097225 0.19597,-0.2437139 0.262273,-0.3255417 0.312231,-0.38534334 0.627137,-0.80421894 0.912158,-1.21330084 0.153433,-0.2202222 0.526353,-0.8966982 0.614985,-1.1155456 0.08746,-0.2159874 0.251977,-0.6792384 0.25504,-0.7181133 0.0015,-0.016106 0.02246,-0.1028915 0.04712,-0.192894 0.110823,-0.4045026 0.146223,-0.7698494 0.10475,-1.0810425 -0.04569,-0.3427647 -0.171705,-0.5446697 -0.439729,-0.7044737 -0.08558,-0.05101 -0.118605,-0.05708 -0.425396,-0.07811 l -0.332632,-0.02275 -0.230714,0.06118 c -0.374541,0.09932 -0.711476,0.291673 -1.042917,0.5953812 -0.19022,0.1743106 -0.288813,0.3084203 -0.421229,0.5729726 -0.100059,0.1999156 -0.121584,0.2636071 -0.137174,0.4059216 -0.02763,0.2522427 0.04081,0.4284727 0.202313,0.5210937 0.07121,0.040815 0.114492,0.049094 0.274716,0.052346 0.15588,0.0029 0.214993,-0.00441 0.327767,-0.043138 0.260116,-0.088818 0.436076,-0.2509237 0.577375,-0.5319263 0.07404,-0.1472379 0.07423,-0.1495672 0.01319,-0.1597507 -0.04747,-0.0079 -0.06241,-0.00348 -0.06391,0.019008 -0.0035,0.052288 -0.236259,0.3090903 -0.328357,0.3622592 -0.08771,0.050639 -0.29515,0.098491 -0.397274,0.091686 -0.09143,-0.00615 -0.213472,-0.087866 -0.245946,-0.1647518 -0.01674,-0.039689 -0.02974,-0.1265922 -0.0289,-0.1931692 0.0015,-0.1121461 0.01235,-0.140517 0.148681,-0.3856789 0.13865,-0.249298 0.155807,-0.2725586 0.297037,-0.4016369 0.379499,-0.3468325 0.683359,-0.4687315 1.031901,-0.4139565 0.432491,0.06797 0.583963,0.3847229 0.462203,0.9665192 -0.03516,0.1680367 -0.0828,0.3153141 -0.232154,0.7178776 -0.07852,0.2116341 -0.817287,1.5520443 -0.943111,1.7111436 -0.05264,0.06657 -0.175344,0.2259827 -0.272671,0.354254 -0.25406,0.3348272 -0.409999,0.5232994 -0.783874,0.94741894 -0.05835,0.066187 -0.161079,0.1828244 -0.228302,0.2591959 -0.177374,0.201525 -0.562785,0.6217545 -0.838594,0.914355 -0.08604,0.09128 -0.206893,0.2199458 -0.268547,0.2859132 -0.06165,0.065966 -0.180012,0.1903812 -0.263021,0.2764833 -0.08301,0.086101 -0.195887,0.20646816 -0.250838,0.26749126 -0.153512,0.1704648 -0.18958,0.1801698 -0.179234,0.048212 0.0049,-0.060451 0.0035,-0.1342281 -0.0024,-0.1639495 -0.08998,-0.42975346 -0.25339,-0.66387496 -0.569541,-0.81596876 -0.209378,-0.1007202 -0.583027,-0.1850689 -0.926177,-0.209068 -0.18667,-0.013052 -0.209689,-0.011031 -0.227047,0.020483 -0.01138,0.02053 0.02117,0.077241 0.07852,0.137066 0.273145,0.2848879 0.527957,0.6443417 0.604871,0.85326676 0.05516,0.1498331 0.0807,0.5000683 0.06029,0.8266784 -0.01773,0.2836431 -0.02556,0.3620582 -0.04727,0.4731047 -0.02388,0.1223562 -0.0044,0.097562 -0.469721,0.5999814 -1.036988,1.1198927 -1.715163,1.9149733 -2.214769,2.5965407 -0.105533,0.1439075 -0.239634,0.3259335 -0.298053,0.404511 -0.160877,0.2163858 -0.516263,0.8192083 -0.706463,1.1983377 -0.241242,0.4808645 -0.329623,0.8189474 -0.36552,1.3981889 -0.01792,0.2889805 0.02206,0.7658714 0.08719,1.0399322 0.101161,0.4257549 0.23105,0.8041013 0.406403,1.1838313 0.08067,0.174675 0.108198,0.227825 0.24434,0.471647 0.04205,0.07532 0.07392,0.141585 0.07079,0.147253 -0.01703,0.03092 -0.230794,0.162556 -0.488295,0.300734 -0.385836,0.207035 -0.483006,0.246767 -0.480308,0.196375 4.93e-4,-0.0091 -0.01822,-0.05664 -0.04161,-0.105704 -0.06629,-0.139192 -0.136466,-0.318466 -0.207622,-0.530381 -0.122618,-0.365189 -0.162601,-0.482528 -0.171327,-0.502796 -0.0049,-0.01112 -0.02861,-0.07249 -0.05295,-0.136326 -0.07731,-0.20286 -0.258161,-0.427685 -0.391204,-0.486325 -0.173084,-0.0763 -0.305396,-0.07874 -0.567788,-0.01048 -0.286351,0.07446 -0.660507,0.259633 -0.794898,0.393409 -0.169988,0.169199 -0.230307,0.344839 -0.178983,0.521138 0.03024,0.103862 0.161709,0.31591 0.239395,0.386112 0.02575,0.02329 0.06513,0.06199 0.08748,0.086 0.104668,0.11244 0.493204,0.371812 0.782569,0.522403 0.08644,0.04496 0.191741,0.100839 0.234024,0.124154 0.0423,0.02329 0.0848,0.04289 0.09446,0.04353 0.02851,0.002 0.191565,0.0933 0.178486,0.100056 -0.0066,0.0035 -0.236874,0.121929 -0.511753,0.263391 -0.274877,0.141462 -0.580541,0.303413 -0.679248,0.359886 -0.09871,0.05648 -0.19572,0.111746 -0.215583,0.12282 -0.09163,0.05109 -0.442467,0.280851 -0.602517,0.394586 -0.2398587,0.170448 -0.3520083,0.262995 -0.5141022,0.424237 -0.1945428,0.193524 -0.3761746,0.52266 -0.4608334,0.835182 -0.032745,0.120746 -0.059278,0.237199 -0.058988,0.258786 0.00441,0.323858 0.036438,0.454024 0.148478,0.602394 0.2005798,0.265597 0.5247328,0.366588 1.2228206,0.380981 0.996813,0.02053 1.579043,-0.213126 2.092953,-0.839987 0.197423,-0.240814 0.257594,-0.342067 0.289168,-0.486582 0.07463,-0.341549 -0.107734,-0.599528 -0.463291,-0.655406 -0.125557,-0.01975 -0.1377,-0.01846 -0.156865,0.0163 -0.01138,0.02073 4.92e-4,0.05936 0.02654,0.08587 0.02604,0.02649 0.05485,0.0893 0.06406,0.139547 0.01521,0.0831 0.0073,0.108451 -0.08763,0.280423 -0.09575,0.173419 -0.11665,0.199378 -0.252562,0.313694 -0.304763,0.256324 -0.738042,0.414509 -1.072047,0.39139 -0.182425,-0.0127 -0.41699,-0.08523 -0.52458,-0.162374 -0.183321,-0.131457 -0.176915,-0.380326 0.0191,-0.74297 l 0.115618,-0.21385 0.188866,-0.15329 c 0.323877,-0.262873 0.905074,-0.585027 1.745746,-0.967647 0.597406,-0.271904 0.676387,-0.302916 0.730556,-0.286854 0.0263,0.0078 0.10792,0.03082 0.181436,0.05121 l 0.133672,0.03703 0.02462,-0.04466 c 0.01719,-0.03117 0.0039,-0.06171 -0.04289,-0.101065 -0.07527,-0.06288 -0.07195,-0.08959 0.01477,-0.118841 0.05842,-0.0197 0.680183,-0.380094 0.759012,-0.439941 0.05002,-0.03796 0.05224,-0.03594 0.258748,0.238057 0.209708,0.278226 0.278729,0.362122 0.526229,0.63961 0.267335,0.299719 0.269088,0.301192 0.29745,0.249756 0.01172,-0.02122 -0.02019,-0.119309 -0.07092,-0.217923 z"
       id="path1131-6-5-3" />
    <path
       style="opacity:0.372371;fill:#999999;stroke:none;stroke-width:0.0647739;stroke-linecap:round;stroke-linejoin:round"
       d="m -8.4596716,14.897961 c 0.3209331,-0.62399 0.5670889,-1.173766 0.5441581,-1.21536 -0.015014,-0.02723 -0.070971,-0.07106 -0.2907089,-0.227775 -0.1117396,-0.07968 -0.7721938,-0.62665 -0.7852326,-0.6503 -0.00441,-0.0081 -0.038458,-0.04057 -0.075453,-0.07208 -0.2044558,-0.174039 -0.5604226,-0.567729 -0.7380019,-0.816219 -0.1236614,-0.17303 -0.3107101,-0.53919 -0.3486261,-0.682449 -0.07508,-0.283663 -0.109882,-0.510709 -0.10483,-0.683832 0.0015,-0.04579 -4.5e-5,-0.08776 -0.0029,-0.09326 -0.0108,-0.01965 0.04875,-0.377899 0.08242,-0.4955139 0.0758,-0.26472 0.164482,-0.4543241 0.3279787,-0.701293 0.1046101,-0.1580215 0.1731042,-0.1865414 0.2016284,-0.083964 0.00952,0.034418 0.018126,0.093379 0.019055,0.1310576 0.00348,0.1401473 0.082269,0.6566814 0.1244592,0.8150623 0.012703,0.04766 0.031421,0.122889 0.041605,0.167151 0.020286,0.08822 0.119624,0.38101 0.2005101,0.591039 0.063249,0.164201 0.4110331,0.795391 0.5156536,0.935942 0.2672509,0.358843 0.4320027,0.543158 0.7523401,0.841701 0.226957,0.211516 0.3656277,0.324261 0.3949601,0.321125 0.029645,-0.0034 0.1981669,-0.487724 0.2423692,-0.697009 0.040177,-0.190215 0.080075,-0.595107 0.078762,-0.799242 -4.924e-4,-0.08084 -4.924e-4,-0.182277 -3.786e-4,-0.225431 0.00151,-0.199211 -0.096668,-0.796198 -0.167318,-1.01804 -0.021865,-0.06863 -0.041953,-0.146682 -0.044717,-0.173453 -0.0029,-0.02679 -0.072562,-0.2250132 -0.1551699,-0.4405275 C -7.7782478,9.2832109 -7.8343023,9.1662015 -8.088505,8.7039892 -8.3785393,8.1766863 -8.4673283,8.0396804 -8.8925219,7.4638514 -9.0525083,7.2471799 -9.3317785,6.8925869 -9.3867948,6.8362561 -9.4076263,6.8149347 -9.4816394,6.7298683 -9.551297,6.6472134 -9.6209558,6.5645588 -9.7505519,6.4179758 -9.8393027,6.3214799 -9.9280507,6.2249799 -10.046948,6.0937787 -10.103519,6.0299241 -10.193989,5.9278048 -10.21743,5.911344 -10.29824,5.8932236 c -0.05052,-0.011321 -0.142191,-0.02339 -0.203696,-0.026737 -0.06151,-0.00345 -0.21227,-0.017283 -0.335025,-0.030825 -0.440956,-0.048747 -0.734033,0.04338 -0.883974,0.2778572 -0.103612,0.1620494 -0.0972,0.2509968 0.03191,0.4425311 0.08625,0.1279407 0.238327,0.2574669 0.376489,0.3206667 0.249559,0.1141583 0.60622,0.1358486 0.702362,0.04274 0.119963,-0.1162117 0.06628,-0.2916593 -0.140093,-0.4578694 -0.06053,-0.048748 -0.123903,-0.093256 -0.140837,-0.098913 -0.01694,-0.00567 -0.04052,-0.02787 -0.05238,-0.049408 -0.0451,-0.081817 0.270072,-0.021469 0.500536,0.095871 0.173035,0.088085 0.246633,0.1636153 0.360305,0.3697542 0.089039,0.1614732 0.102973,0.2020422 0.095472,0.2778819 -0.022701,0.2295575 -0.181135,0.3257826 -0.58026,0.3524658 -0.225324,0.015067 -0.451296,0.00246 -0.571117,-0.031218 -0.04461,-0.012655 -0.09238,-0.022256 -0.106166,-0.021419 -0.01378,9.848e-4 -0.108988,-0.027821 -0.21158,-0.063737 -0.490357,-0.171656 -0.804801,-0.4672988 -0.996163,-0.9366018 -0.165905,-0.4068664 -0.155515,-0.7245097 0.03334,-1.0199161 0.17823,-0.2787632 0.367933,-0.383497 0.829215,-0.4578102 0.166514,-0.026836 0.309321,-0.053799 0.317352,-0.05995 0.008,-0.00615 -0.0095,-0.033532 -0.03905,-0.060816 -0.02949,-0.027279 -0.105933,-0.1078904 -0.169849,-0.1790964 -0.06391,-0.071201 -0.189087,-0.2083942 -0.278162,-0.3048753 -0.378908,-0.4103969 -0.959794,-1.0535669 -1.177185,-1.3034067 -0.07092,-0.081514 -0.205553,-0.2357215 -0.299168,-0.3426818 -0.09361,-0.1069556 -0.230085,-0.2654487 -0.303275,-0.3522046 -0.07319,-0.086751 -0.217657,-0.2579498 -0.321031,-0.3804292 -0.10338,-0.1224747 -0.251736,-0.3022312 -0.329688,-0.3994503 -0.07795,-0.097225 -0.195971,-0.2437151 -0.262272,-0.3255418 -0.312232,-0.38534326 -0.627137,-0.80422006 -0.91216,-1.21330236 -0.153431,-0.220221 -0.526352,-0.896697 -0.614983,-1.11554564 -0.08746,-0.2159862 -0.251977,-0.6792368 -0.25504,-0.7181128 -0.0015,-0.016106 -0.02246,-0.1028916 -0.04712,-0.1928929 -0.110822,-0.4045026 -0.146224,-0.7698505 -0.104749,-1.0810425 0.04569,-0.3427666 0.171705,-0.5446701 0.439729,-0.7044742 0.08558,-0.05101 0.118604,-0.057083 0.425396,-0.078112 l 0.332631,-0.022747 0.230715,0.061182 c 0.37454,0.099315 0.711476,0.2916738 1.042917,0.5953832 0.190218,0.1743095 0.288812,0.3084203 0.421229,0.5729726 0.100058,0.1999156 0.121584,0.2636071 0.137173,0.4059216 0.02762,0.2522415 -0.04082,0.4284727 -0.202313,0.5210936 -0.07121,0.040815 -0.114491,0.049094 -0.274716,0.052346 -0.155879,0.0029 -0.214992,-0.00441 -0.327766,-0.043138 -0.260117,-0.088818 -0.436076,-0.2509224 -0.577376,-0.5319262 -0.07404,-0.1472379 -0.07423,-0.1495672 -0.01319,-0.1597495 0.04747,-0.0079 0.06241,-0.00348 0.06391,0.019008 0.0035,0.052288 0.236259,0.3090902 0.328358,0.3622603 0.08771,0.050639 0.29515,0.098491 0.397274,0.091686 0.09142,-0.00615 0.213471,-0.087866 0.245945,-0.164753 0.01674,-0.039689 0.02974,-0.126591 0.0289,-0.1931692 -0.0015,-0.112146 -0.01235,-0.1405158 -0.14868,-0.3856777 -0.138651,-0.249298 -0.155806,-0.2725597 -0.297036,-0.401638 -0.379499,-0.3468319 -0.683361,-0.4687318 -1.031902,-0.4139569 -0.43249,0.067975 -0.583963,0.3847232 -0.462202,0.9665207 0.03516,0.1680367 0.0828,0.3153141 0.232152,0.7178764 0.07852,0.2116342 0.817288,1.55204504 0.943111,1.71114434 0.05264,0.06657 0.175344,0.2259828 0.272673,0.3542529 0.25406,0.3348288 0.409998,0.5232999 0.783874,0.94742046 0.05835,0.066187 0.161079,0.1828232 0.228301,0.2591947 0.177373,0.201525 0.562786,0.6217557 0.838595,0.914355 0.08604,0.091291 0.206892,0.2199458 0.268545,0.2859132 0.06165,0.065966 0.180013,0.1903824 0.263022,0.2764834 0.08301,0.086101 0.195887,0.2064693 0.250839,0.2674921 0.153512,0.1704645 0.18958,0.1801697 0.179234,0.048206 -0.0049,-0.060452 -0.0035,-0.1342278 0.0024,-0.1639492 0.08998,-0.4297535 0.25339,-0.6638761 0.569542,-0.8159688 0.209379,-0.1007202 0.583028,-0.1850689 0.926178,-0.2090692 0.186669,-0.013052 0.2096892,-0.011031 0.2270465,0.020483 0.011379,0.020529 -0.02118,0.077241 -0.078518,0.1370648 -0.273145,0.2848891 -0.5279585,0.6443417 -0.6048705,0.853268 -0.05516,0.1498324 -0.0807,0.5000678 -0.0603,0.8266777 0.01773,0.2836429 0.02556,0.3620579 0.04727,0.4731043 0.02389,0.1223568 0.0044,0.097564 0.469721,0.5999813 1.0369877,1.1198933 1.7151625,1.9149741 2.2147675,2.5965413 0.1054809,0.1439044 0.2395836,0.3259304 0.2980022,0.4045079 0.160877,0.2163858 0.5162632,0.8192084 0.7064633,1.1983377 0.2412417,0.4808645 0.3296232,0.8189474 0.3655185,1.3981893 0.017929,0.28898 -0.022062,0.765871 -0.087192,1.039932 -0.1011614,0.425755 -0.2310502,0.804101 -0.4064047,1.183832 -0.080655,0.174674 -0.108198,0.227824 -0.2443386,0.471646 -0.042046,0.07532 -0.073909,0.141585 -0.070785,0.147253 0.017034,0.03092 0.2307936,0.162557 0.4882941,0.300734 0.3858368,0.207035 0.4830072,0.246767 0.4803086,0.196375 -4.923e-4,-0.0091 0.018219,-0.05665 0.041605,-0.105704 0.066291,-0.139192 0.1364692,-0.318466 0.207627,-0.53038 0.1226175,-0.36519 0.1626002,-0.482529 0.1713252,-0.502796 0.00488,-0.01112 0.028611,-0.07249 0.05295,-0.136327 0.077311,-0.202859 0.2581612,-0.427685 0.3912037,-0.486325 0.1730833,-0.0763 0.3053966,-0.07874 0.5677879,-0.01048 0.286351,0.07446 0.6605076,0.259633 0.7948982,0.393409 0.1699864,0.169199 0.2303059,0.344839 0.1789832,0.521138 -0.030237,0.103862 -0.1617096,0.31591 -0.2393955,0.386112 -0.025755,0.02329 -0.06513,0.06199 -0.087483,0.086 -0.1046681,0.11244 -0.4932047,0.371812 -0.7825689,0.522403 -0.086438,0.04496 -0.191741,0.100839 -0.2340239,0.124154 -0.042301,0.02329 -0.084801,0.04289 -0.094461,0.04353 -0.028507,0.002 -0.1915633,0.0933 -0.178485,0.100056 0.00662,0.0035 0.2368746,0.121929 0.5117532,0.263391 0.2748774,0.141462 0.580541,0.303413 0.6792477,0.359886 0.098711,0.05648 0.1957191,0.111746 0.2155833,0.12282 0.091628,0.05109 0.4424672,0.280851 0.6025174,0.394586 0.2398635,0.17045 0.352013,0.262997 0.5141058,0.424238 0.1945428,0.193524 0.3761758,0.52266 0.4608334,0.835182 0.032745,0.120747 0.059278,0.2372 0.058988,0.258787 -0.00441,0.323857 -0.036438,0.454023 -0.1484792,0.602394 -0.2005798,0.265596 -0.5247316,0.366588 -1.2228193,0.380981 -0.9968134,0.02053 -1.5790428,-0.213127 -2.0929523,-0.839988 -0.1974237,-0.240814 -0.2575957,-0.342066 -0.289168,-0.486581 -0.074629,-0.34155 0.1077336,-0.599529 0.4632905,-0.655406 0.1255576,-0.01975 0.1377,-0.01846 0.156864,0.0163 0.01138,0.02073 -4.924e-4,0.05936 -0.026544,0.08587 -0.026045,0.02649 -0.054854,0.0893 -0.064062,0.139547 -0.015211,0.0831 -0.00732,0.108451 0.087634,0.280422 0.09575,0.173419 0.1166502,0.199379 0.2525632,0.313694 0.3047614,0.256325 0.7380402,0.414509 1.0720469,0.391391 0.1824248,-0.01271 0.4169899,-0.08523 0.5245795,-0.162375 0.1833213,-0.131456 0.1769151,-0.380326 -0.019101,-0.742969 L -3.7126152,16.012575 -3.90148,15.859286 c -0.3238789,-0.262874 -0.9050749,-0.585027 -1.7457465,-0.967648 -0.5974059,-0.271904 -0.6763877,-0.302915 -0.7305564,-0.286853 -0.026289,0.0078 -0.1079194,0.03082 -0.1814356,0.05121 l -0.1336719,0.03703 -0.024617,-0.04466 c -0.017185,-0.03117 -0.00395,-0.06171 0.042882,-0.101065 0.075267,-0.06288 0.071946,-0.08959 -0.01477,-0.11884 -0.058419,-0.0197 -0.6801847,-0.380095 -0.7590133,-0.439941 -0.050023,-0.03796 -0.052241,-0.03594 -0.2587464,0.238056 -0.209709,0.278227 -0.2787291,0.362122 -0.5262296,0.63961 -0.2673344,0.299719 -0.2690878,0.301192 -0.2974494,0.249755 -0.011716,-0.02122 0.020193,-0.119308 0.070924,-0.217922 z"
       id="path1131-6-5-3-5" />
    <g
       id="g14665"
       transform="matrix(0.54942956,-0.18080998,0.18080998,0.54942956,-64.817622,-1.2711424)">
      <g
         id="g14658">
        <path
           style="color:#000000;display:inline;overflow:visible;visibility:visible;fill:#ffffff;fill-opacity:1;fill-rule:nonzero;stroke:none;stroke-width:0.264583px;marker:none;enable-background:accumulate"
           d="m -49.177877,127.06825 c 0.860608,-2.99535 5.457558,-12.27323 6.802912,-2.45825 9.905497,-13.14238 22.129617,-8.51138 24.839241,-6.59632 -1.250367,-3.8907 1.270583,-10.88417 8.470715,-9.16464 -1.368054,-3.75867 0.697495,-6.58098 5.826654,-8.56747 -7.268924,-1.758424 -8.805227,-4.045746 3.98338197,-7.656515 -9.95862597,0.541337 -19.28024097,0.767556 -8.53037897,-8.93154 -3.67792,0.07858 -11.597825,8.088577 -9.760293,-13.654616 -5.580301,7.357798 -11.895561,11.675533 -21.787115,-2.020623 -2.000991,5.877718 -5.470551,10.015008 -13.704597,2.867289 -1.0106,5.75654 -9.9364,6.936317 -13.3568,6.054725 7.30589,5.768446 7.48022,9.698832 -1.49561,11.025452 16.32691,10.145448 3.76404,9.419167 1.6174,12.491778 12.30442,2.96518 7.48022,8.2505 5.86057,13.26515 13.696739,-0.92155 10.01998,7.20433 11.23392,13.34558 z"
           id="path3549-3-8"
           inkscape:connector-curvature="0"
           sodipodi:nodetypes="ccccccccccccccc" />
        <path
           style="color:#000000;display:inline;overflow:visible;visibility:visible;fill:#ffffff;fill-opacity:1;fill-rule:nonzero;stroke:none;stroke-width:0.264583px;marker:none;enable-background:accumulate"
           d="m -35.859574,114.90244 c 1.646369,7.27155 4.390284,15.64032 5.213482,17.56119 1.646343,-1.92087 3.429899,-3.29274 4.80187,-4.39023 1.234757,3.70417 6.036627,21.26536 5.487828,25.79291 1.783557,-11.11303 -0.960358,-24.69542 -3.429899,-30.59483 -2.057929,1.09749 -3.1555,2.05793 -4.253071,2.60667 -1.371971,-2.88105 -3.841512,-13.17069 -3.841512,-13.17069 z"
           id="path5066-8"
           inkscape:connector-curvature="0" />
        <text
           xml:space="preserve"
           style="font-style:normal;font-variant:normal;font-weight:normal;font-stretch:normal;font-size:3.175px;line-height:0%;font-family:Lavi;-inkscape-font-specification:Lavi;text-align:center;letter-spacing:0px;word-spacing:0px;text-anchor:middle;display:inline;fill:#000000;fill-opacity:1;stroke:none;stroke-width:0.264583"
           x="-22.612818"
           y="96.915443"
           id="text4246-2-3-1-3-9-9-7"
           transform="matrix(0.89365154,0,-0.19329857,1.1190044,0,0)"><tspan
             sodipodi:role="line"
             style="font-size:27.595px;line-height:1.25;letter-spacing:-1.32292px;stroke-width:0.264583"
             x="-23.274277"
             y="96.915443"
             id="tspan4161-6">?!!</tspan></text>
      </g>
    </g>
    <g
       id="g14652"
       transform="matrix(0.59850668,0.13272923,-0.13272923,0.59850668,-103.45247,-29.258936)">
      <path
         style="color:#000000;display:inline;overflow:visible;visibility:visible;fill:#ffffff;fill-opacity:1;fill-rule:nonzero;stroke:none;stroke-width:1px;marker:none;filter:url(#filter4172);enable-background:accumulate"
         d="m 1415.1024,1375.9062 c 156.9856,4.8731 166.0897,54.8697 165.8002,104.4211 -0.2653,45.4145 -29.6572,65.2583 -57.3504,69.5726 -20.9315,3.2609 -84.9703,9.9954 -125.0354,7.8116 -37.8813,-2.0648 -135.892,10.3543 -142.4123,-88.5252 -6.5203,-98.8795 150.3088,-97.1142 158.9979,-93.2801 z"
         id="path3365-70"
         inkscape:connector-curvature="0"
         sodipodi:nodetypes="cssszc"
         transform="matrix(-0.2246693,0,0,0.20749356,523.17811,-195.34599)" />
      <g
         id="g14645">
        <path
           style="display:inline;fill:#ffffff;fill-opacity:1;fill-rule:evenodd;stroke:none;stroke-width:0.264583px;stroke-linecap:butt;stroke-linejoin:miter;stroke-opacity:1"
           d="m 193.09101,118.37999 c 0.37828,2.23811 -2.03477,3.30782 -3.52046,4.3889 -1.87688,1.34197 -1.33281,4.21402 0.75499,5.00645 1.76249,0.64505 2.39942,2.47094 2.52089,4.18703 -0.18465,2.05237 -0.9689,3.56129 -0.7552,5.29114 -0.20526,2.63498 -2.9216,3.2983 -2.6747,6.06981 0.2531,1.83911 1.56337,2.57677 3.24851,3.63854 1.27955,0.65326 2.77418,5.71739 2.68155,7.31203 -1.22127,-1.85817 -2.82403,-5.09217 -5.39404,-6.28306 -2.93796,-2.13387 -4.61377,-5.82983 -2.91197,-8.41984 1.965,-2.17143 2.70843,-5.89888 0.50056,-8.1653 -1.58903,-1.22423 -3.62593,-2.66859 -3.41365,-4.95776 0.63434,-3.10383 0.80065,-6.77572 3.43691,-8.95086 1.49405,-1.02764 2.27449,-3.49858 4.32848,-3.43852 1.7777,0.64611 1.5036,2.85406 1.19813,4.32144 z"
           id="path4396-1"
           inkscape:connector-curvature="0"
           sodipodi:nodetypes="ccccccccccccccc" />
        <text
           xml:space="preserve"
           style="font-style:normal;font-variant:normal;font-weight:normal;font-stretch:normal;line-height:0%;font-family:Lavi;-inkscape-font-specification:Lavi;text-align:center;letter-spacing:0px;word-spacing:0px;text-anchor:middle;display:inline;fill:#000000;fill-opacity:1;stroke:#000000;stroke-width:0.5;stroke-miterlimit:4;stroke-dasharray:none;stroke-opacity:1;filter:url(#filter4186)"
           x="1825.9436"
           y="-3448.1738"
           id="text4246-2-3-1-3-9-0"
           transform="matrix(0.53743085,0,0,0.53743085,-781.89311,1971.8223)"><tspan
             sodipodi:role="line"
             style="font-size:45px;line-height:1.25;stroke:#000000;stroke-width:0.5;stroke-miterlimit:4;stroke-dasharray:none;stroke-opacity:1"
             x="1825.9436"
             y="-3448.1738"
             id="tspan4170-1">??</tspan></text>
      </g>
    </g>
  </g>
</svg>
